<?xml version="1.0" encoding="utf-8" standalone="no"?>
<!DOCTYPE svg PUBLIC "-//W3C//DTD SVG 1.1//EN"
  "http://www.w3.org/Graphics/SVG/1.1/DTD/svg11.dtd">
<svg xmlns:xlink="http://www.w3.org/1999/xlink" width="432pt" height="288pt" viewBox="0 0 432 288" xmlns="http://www.w3.org/2000/svg" version="1.1">
 <metadata>
  <rdf:RDF xmlns:dc="http://purl.org/dc/elements/1.1/" xmlns:cc="http://creativecommons.org/ns#" xmlns:rdf="http://www.w3.org/1999/02/22-rdf-syntax-ns#">
   <cc:Work>
    <dc:type rdf:resource="http://purl.org/dc/dcmitype/StillImage"/>
    <dc:date>2024-01-23T12:13:08.501601</dc:date>
    <dc:format>image/svg+xml</dc:format>
    <dc:creator>
     <cc:Agent>
      <dc:title>Matplotlib v3.5.1, https://matplotlib.org/</dc:title>
     </cc:Agent>
    </dc:creator>
   </cc:Work>
  </rdf:RDF>
 </metadata>
 <defs>
  <style type="text/css">*{stroke-linejoin: round; stroke-linecap: butt}</style>
 </defs>
 <g id="figure_1">
  <g id="patch_1">
   <path d="M 0 288 
L 432 288 
L 432 0 
L 0 0 
L 0 288 
z
" style="fill: none"/>
  </g>
  <g id="axes_1">
   <g id="patch_2">
    <path d="M 54 252 
L 388.8 252 
L 388.8 34.56 
L 54 34.56 
z
" style="fill: #ffffff"/>
   </g>
   <g id="PathCollection_1">
    <defs>
     <path id="C0_0_a688b13964" d="M 0 3 
C 0.795609 3 1.55874 2.683901 2.12132 2.12132 
C 2.683901 1.55874 3 0.795609 3 -0 
C 3 -0.795609 2.683901 -1.55874 2.12132 -2.12132 
C 1.55874 -2.683901 0.795609 -3 0 -3 
C -0.795609 -3 -1.55874 -2.683901 -2.12132 -2.12132 
C -2.683901 -1.55874 -3 -0.795609 -3 0 
C -3 0.795609 -2.683901 1.55874 -2.12132 2.12132 
C -1.55874 2.683901 -0.795609 3 0 3 
z
"/>
    </defs>
    <g clip-path="url(#pfe79d86b89)">
     <use xlink:href="#C0_0_a688b13964" x="69.218182" y="241.864997" style="fill: #66c2a5; stroke: #ffffff; stroke-width: 0.48"/>
    </g>
    <g clip-path="url(#pfe79d86b89)">
     <use xlink:href="#C0_0_a688b13964" x="70.397886" y="241.19211" style="fill: #66c2a5; stroke: #ffffff; stroke-width: 0.48"/>
    </g>
    <g clip-path="url(#pfe79d86b89)">
     <use xlink:href="#C0_0_a688b13964" x="71.57759" y="238.324273" style="fill: #66c2a5; stroke: #ffffff; stroke-width: 0.48"/>
    </g>
    <g clip-path="url(#pfe79d86b89)">
     <use xlink:href="#C0_0_a688b13964" x="72.757294" y="238.860052" style="fill: #66c2a5; stroke: #ffffff; stroke-width: 0.48"/>
    </g>
    <g clip-path="url(#pfe79d86b89)">
     <use xlink:href="#C0_0_a688b13964" x="73.936998" y="241.348413" style="fill: #66c2a5; stroke: #ffffff; stroke-width: 0.48"/>
    </g>
    <g clip-path="url(#pfe79d86b89)">
     <use xlink:href="#C0_0_a688b13964" x="75.116702" y="241.313554" style="fill: #66c2a5; stroke: #ffffff; stroke-width: 0.48"/>
    </g>
    <g clip-path="url(#pfe79d86b89)">
     <use xlink:href="#C0_0_a688b13964" x="76.296406" y="240.2626" style="fill: #66c2a5; stroke: #ffffff; stroke-width: 0.48"/>
    </g>
    <g clip-path="url(#pfe79d86b89)">
     <use xlink:href="#C0_0_a688b13964" x="77.47611" y="241.742415" style="fill: #66c2a5; stroke: #ffffff; stroke-width: 0.48"/>
    </g>
    <g clip-path="url(#pfe79d86b89)">
     <use xlink:href="#C0_0_a688b13964" x="78.655814" y="241.694299" style="fill: #66c2a5; stroke: #ffffff; stroke-width: 0.48"/>
    </g>
    <g clip-path="url(#pfe79d86b89)">
     <use xlink:href="#C0_0_a688b13964" x="79.835518" y="241.152124" style="fill: #66c2a5; stroke: #ffffff; stroke-width: 0.48"/>
    </g>
    <g clip-path="url(#pfe79d86b89)">
     <use xlink:href="#C0_0_a688b13964" x="81.015222" y="241.746141" style="fill: #66c2a5; stroke: #ffffff; stroke-width: 0.48"/>
    </g>
    <g clip-path="url(#pfe79d86b89)">
     <use xlink:href="#C0_0_a688b13964" x="82.194926" y="241.521756" style="fill: #66c2a5; stroke: #ffffff; stroke-width: 0.48"/>
    </g>
    <g clip-path="url(#pfe79d86b89)">
     <use xlink:href="#C0_0_a688b13964" x="83.37463" y="240.411114" style="fill: #66c2a5; stroke: #ffffff; stroke-width: 0.48"/>
    </g>
    <g clip-path="url(#pfe79d86b89)">
     <use xlink:href="#C0_0_a688b13964" x="84.554334" y="241.722694" style="fill: #66c2a5; stroke: #ffffff; stroke-width: 0.48"/>
    </g>
    <g clip-path="url(#pfe79d86b89)">
     <use xlink:href="#C0_0_a688b13964" x="85.734038" y="241.502972" style="fill: #66c2a5; stroke: #ffffff; stroke-width: 0.48"/>
    </g>
    <g clip-path="url(#pfe79d86b89)">
     <use xlink:href="#C0_0_a688b13964" x="86.913742" y="241.617909" style="fill: #66c2a5; stroke: #ffffff; stroke-width: 0.48"/>
    </g>
    <g clip-path="url(#pfe79d86b89)">
     <use xlink:href="#C0_0_a688b13964" x="88.093446" y="241.40507" style="fill: #66c2a5; stroke: #ffffff; stroke-width: 0.48"/>
    </g>
    <g clip-path="url(#pfe79d86b89)">
     <use xlink:href="#C0_0_a688b13964" x="89.27315" y="216.818966" style="fill: #66c2a5; stroke: #ffffff; stroke-width: 0.48"/>
    </g>
    <g clip-path="url(#pfe79d86b89)">
     <use xlink:href="#C0_0_a688b13964" x="90.452854" y="241.34747" style="fill: #66c2a5; stroke: #ffffff; stroke-width: 0.48"/>
    </g>
    <g clip-path="url(#pfe79d86b89)">
     <use xlink:href="#C0_0_a688b13964" x="162.414799" y="242.094982" style="fill: #8da0cb; stroke: #ffffff; stroke-width: 0.48"/>
    </g>
    <g clip-path="url(#pfe79d86b89)">
     <use xlink:href="#C0_0_a688b13964" x="163.594503" y="241.980356" style="fill: #8da0cb; stroke: #ffffff; stroke-width: 0.48"/>
    </g>
    <g clip-path="url(#pfe79d86b89)">
     <use xlink:href="#C0_0_a688b13964" x="164.774207" y="241.7797" style="fill: #8da0cb; stroke: #ffffff; stroke-width: 0.48"/>
    </g>
    <g clip-path="url(#pfe79d86b89)">
     <use xlink:href="#C0_0_a688b13964" x="165.953911" y="241.18068" style="fill: #8da0cb; stroke: #ffffff; stroke-width: 0.48"/>
    </g>
    <g clip-path="url(#pfe79d86b89)">
     <use xlink:href="#C0_0_a688b13964" x="167.133615" y="241.888549" style="fill: #8da0cb; stroke: #ffffff; stroke-width: 0.48"/>
    </g>
    <g clip-path="url(#pfe79d86b89)">
     <use xlink:href="#C0_0_a688b13964" x="168.313319" y="241.873397" style="fill: #8da0cb; stroke: #ffffff; stroke-width: 0.48"/>
    </g>
    <g clip-path="url(#pfe79d86b89)">
     <use xlink:href="#C0_0_a688b13964" x="169.493023" y="241.922465" style="fill: #8da0cb; stroke: #ffffff; stroke-width: 0.48"/>
    </g>
    <g clip-path="url(#pfe79d86b89)">
     <use xlink:href="#C0_0_a688b13964" x="170.672727" y="238.41648" style="fill: #8da0cb; stroke: #ffffff; stroke-width: 0.48"/>
    </g>
    <g clip-path="url(#pfe79d86b89)">
     <use xlink:href="#C0_0_a688b13964" x="171.852431" y="240.884942" style="fill: #8da0cb; stroke: #ffffff; stroke-width: 0.48"/>
    </g>
    <g clip-path="url(#pfe79d86b89)">
     <use xlink:href="#C0_0_a688b13964" x="173.032135" y="241.704432" style="fill: #8da0cb; stroke: #ffffff; stroke-width: 0.48"/>
    </g>
    <g clip-path="url(#pfe79d86b89)">
     <use xlink:href="#C0_0_a688b13964" x="174.211839" y="241.87058" style="fill: #8da0cb; stroke: #ffffff; stroke-width: 0.48"/>
    </g>
    <g clip-path="url(#pfe79d86b89)">
     <use xlink:href="#C0_0_a688b13964" x="175.391543" y="241.468968" style="fill: #8da0cb; stroke: #ffffff; stroke-width: 0.48"/>
    </g>
    <g clip-path="url(#pfe79d86b89)">
     <use xlink:href="#C0_0_a688b13964" x="176.571247" y="241.511968" style="fill: #8da0cb; stroke: #ffffff; stroke-width: 0.48"/>
    </g>
    <g clip-path="url(#pfe79d86b89)">
     <use xlink:href="#C0_0_a688b13964" x="177.750951" y="241.111267" style="fill: #8da0cb; stroke: #ffffff; stroke-width: 0.48"/>
    </g>
    <g clip-path="url(#pfe79d86b89)">
     <use xlink:href="#C0_0_a688b13964" x="178.930655" y="241.829054" style="fill: #8da0cb; stroke: #ffffff; stroke-width: 0.48"/>
    </g>
    <g clip-path="url(#pfe79d86b89)">
     <use xlink:href="#C0_0_a688b13964" x="180.110359" y="241.636919" style="fill: #8da0cb; stroke: #ffffff; stroke-width: 0.48"/>
    </g>
    <g clip-path="url(#pfe79d86b89)">
     <use xlink:href="#C0_0_a688b13964" x="181.290063" y="241.67754" style="fill: #8da0cb; stroke: #ffffff; stroke-width: 0.48"/>
    </g>
    <g clip-path="url(#pfe79d86b89)">
     <use xlink:href="#C0_0_a688b13964" x="182.469767" y="240.764102" style="fill: #8da0cb; stroke: #ffffff; stroke-width: 0.48"/>
    </g>
    <g clip-path="url(#pfe79d86b89)">
     <use xlink:href="#C0_0_a688b13964" x="183.649471" y="241.933668" style="fill: #8da0cb; stroke: #ffffff; stroke-width: 0.48"/>
    </g>
    <g clip-path="url(#pfe79d86b89)">
     <use xlink:href="#C0_0_a688b13964" x="184.829175" y="241.310346" style="fill: #8da0cb; stroke: #ffffff; stroke-width: 0.48"/>
    </g>
    <g clip-path="url(#pfe79d86b89)">
     <use xlink:href="#C0_0_a688b13964" x="256.791121" y="241.875067" style="fill: #fc8d62; stroke: #ffffff; stroke-width: 0.48"/>
    </g>
    <g clip-path="url(#pfe79d86b89)">
     <use xlink:href="#C0_0_a688b13964" x="257.970825" y="241.775903" style="fill: #fc8d62; stroke: #ffffff; stroke-width: 0.48"/>
    </g>
    <g clip-path="url(#pfe79d86b89)">
     <use xlink:href="#C0_0_a688b13964" x="259.150529" y="240.970246" style="fill: #fc8d62; stroke: #ffffff; stroke-width: 0.48"/>
    </g>
    <g clip-path="url(#pfe79d86b89)">
     <use xlink:href="#C0_0_a688b13964" x="260.330233" y="241.620832" style="fill: #fc8d62; stroke: #ffffff; stroke-width: 0.48"/>
    </g>
    <g clip-path="url(#pfe79d86b89)">
     <use xlink:href="#C0_0_a688b13964" x="261.509937" y="241.688642" style="fill: #fc8d62; stroke: #ffffff; stroke-width: 0.48"/>
    </g>
    <g clip-path="url(#pfe79d86b89)">
     <use xlink:href="#C0_0_a688b13964" x="262.689641" y="241.258914" style="fill: #fc8d62; stroke: #ffffff; stroke-width: 0.48"/>
    </g>
    <g clip-path="url(#pfe79d86b89)">
     <use xlink:href="#C0_0_a688b13964" x="263.869345" y="241.96898" style="fill: #fc8d62; stroke: #ffffff; stroke-width: 0.48"/>
    </g>
    <g clip-path="url(#pfe79d86b89)">
     <use xlink:href="#C0_0_a688b13964" x="265.049049" y="241.306445" style="fill: #fc8d62; stroke: #ffffff; stroke-width: 0.48"/>
    </g>
    <g clip-path="url(#pfe79d86b89)">
     <use xlink:href="#C0_0_a688b13964" x="266.228753" y="226.168007" style="fill: #fc8d62; stroke: #ffffff; stroke-width: 0.48"/>
    </g>
    <g clip-path="url(#pfe79d86b89)">
     <use xlink:href="#C0_0_a688b13964" x="267.408457" y="238.883829" style="fill: #fc8d62; stroke: #ffffff; stroke-width: 0.48"/>
    </g>
    <g clip-path="url(#pfe79d86b89)">
     <use xlink:href="#C0_0_a688b13964" x="268.588161" y="240.311681" style="fill: #fc8d62; stroke: #ffffff; stroke-width: 0.48"/>
    </g>
    <g clip-path="url(#pfe79d86b89)">
     <use xlink:href="#C0_0_a688b13964" x="269.767865" y="241.306445" style="fill: #fc8d62; stroke: #ffffff; stroke-width: 0.48"/>
    </g>
    <g clip-path="url(#pfe79d86b89)">
     <use xlink:href="#C0_0_a688b13964" x="270.947569" y="240.935151" style="fill: #fc8d62; stroke: #ffffff; stroke-width: 0.48"/>
    </g>
    <g clip-path="url(#pfe79d86b89)">
     <use xlink:href="#C0_0_a688b13964" x="272.127273" y="241.745433" style="fill: #fc8d62; stroke: #ffffff; stroke-width: 0.48"/>
    </g>
    <g clip-path="url(#pfe79d86b89)">
     <use xlink:href="#C0_0_a688b13964" x="273.306977" y="240.693384" style="fill: #fc8d62; stroke: #ffffff; stroke-width: 0.48"/>
    </g>
    <g clip-path="url(#pfe79d86b89)">
     <use xlink:href="#C0_0_a688b13964" x="274.486681" y="228.970833" style="fill: #fc8d62; stroke: #ffffff; stroke-width: 0.48"/>
    </g>
    <g clip-path="url(#pfe79d86b89)">
     <use xlink:href="#C0_0_a688b13964" x="275.666385" y="241.756798" style="fill: #fc8d62; stroke: #ffffff; stroke-width: 0.48"/>
    </g>
    <g clip-path="url(#pfe79d86b89)">
     <use xlink:href="#C0_0_a688b13964" x="276.846089" y="241.833439" style="fill: #fc8d62; stroke: #ffffff; stroke-width: 0.48"/>
    </g>
    <g clip-path="url(#pfe79d86b89)">
     <use xlink:href="#C0_0_a688b13964" x="278.025793" y="241.947485" style="fill: #fc8d62; stroke: #ffffff; stroke-width: 0.48"/>
    </g>
    <g clip-path="url(#pfe79d86b89)">
     <use xlink:href="#C0_0_a688b13964" x="279.205497" y="241.705777" style="fill: #fc8d62; stroke: #ffffff; stroke-width: 0.48"/>
    </g>
    <g clip-path="url(#pfe79d86b89)">
     <use xlink:href="#C0_0_a688b13964" x="351.167442" y="242.116364" style="fill: #e78ac3; stroke: #ffffff; stroke-width: 0.48"/>
    </g>
    <g clip-path="url(#pfe79d86b89)">
     <use xlink:href="#C0_0_a688b13964" x="352.347146" y="241.869203" style="fill: #e78ac3; stroke: #ffffff; stroke-width: 0.48"/>
    </g>
    <g clip-path="url(#pfe79d86b89)">
     <use xlink:href="#C0_0_a688b13964" x="353.52685" y="241.586212" style="fill: #e78ac3; stroke: #ffffff; stroke-width: 0.48"/>
    </g>
    <g clip-path="url(#pfe79d86b89)">
     <use xlink:href="#C0_0_a688b13964" x="354.706554" y="241.679495" style="fill: #e78ac3; stroke: #ffffff; stroke-width: 0.48"/>
    </g>
    <g clip-path="url(#pfe79d86b89)">
     <use xlink:href="#C0_0_a688b13964" x="355.886258" y="241.366776" style="fill: #e78ac3; stroke: #ffffff; stroke-width: 0.48"/>
    </g>
    <g clip-path="url(#pfe79d86b89)">
     <use xlink:href="#C0_0_a688b13964" x="357.065962" y="241.683052" style="fill: #e78ac3; stroke: #ffffff; stroke-width: 0.48"/>
    </g>
    <g clip-path="url(#pfe79d86b89)">
     <use xlink:href="#C0_0_a688b13964" x="358.245666" y="240.684401" style="fill: #e78ac3; stroke: #ffffff; stroke-width: 0.48"/>
    </g>
    <g clip-path="url(#pfe79d86b89)">
     <use xlink:href="#C0_0_a688b13964" x="360.605074" y="240.929112" style="fill: #e78ac3; stroke: #ffffff; stroke-width: 0.48"/>
    </g>
    <g clip-path="url(#pfe79d86b89)">
     <use xlink:href="#C0_0_a688b13964" x="361.784778" y="241.725194" style="fill: #e78ac3; stroke: #ffffff; stroke-width: 0.48"/>
    </g>
    <g clip-path="url(#pfe79d86b89)">
     <use xlink:href="#C0_0_a688b13964" x="362.964482" y="44.443636" style="fill: #e78ac3; stroke: #ffffff; stroke-width: 0.48"/>
    </g>
    <g clip-path="url(#pfe79d86b89)">
     <use xlink:href="#C0_0_a688b13964" x="364.144186" y="241.461647" style="fill: #e78ac3; stroke: #ffffff; stroke-width: 0.48"/>
    </g>
    <g clip-path="url(#pfe79d86b89)">
     <use xlink:href="#C0_0_a688b13964" x="365.32389" y="241.803991" style="fill: #e78ac3; stroke: #ffffff; stroke-width: 0.48"/>
    </g>
    <g clip-path="url(#pfe79d86b89)">
     <use xlink:href="#C0_0_a688b13964" x="366.503594" y="240.327848" style="fill: #e78ac3; stroke: #ffffff; stroke-width: 0.48"/>
    </g>
    <g clip-path="url(#pfe79d86b89)">
     <use xlink:href="#C0_0_a688b13964" x="367.683298" y="240.660347" style="fill: #e78ac3; stroke: #ffffff; stroke-width: 0.48"/>
    </g>
    <g clip-path="url(#pfe79d86b89)">
     <use xlink:href="#C0_0_a688b13964" x="368.863002" y="239.986741" style="fill: #e78ac3; stroke: #ffffff; stroke-width: 0.48"/>
    </g>
    <g clip-path="url(#pfe79d86b89)">
     <use xlink:href="#C0_0_a688b13964" x="370.042706" y="241.771658" style="fill: #e78ac3; stroke: #ffffff; stroke-width: 0.48"/>
    </g>
    <g clip-path="url(#pfe79d86b89)">
     <use xlink:href="#C0_0_a688b13964" x="371.22241" y="239.864284" style="fill: #e78ac3; stroke: #ffffff; stroke-width: 0.48"/>
    </g>
    <g clip-path="url(#pfe79d86b89)">
     <use xlink:href="#C0_0_a688b13964" x="372.402114" y="241.076858" style="fill: #e78ac3; stroke: #ffffff; stroke-width: 0.48"/>
    </g>
    <g clip-path="url(#pfe79d86b89)">
     <use xlink:href="#C0_0_a688b13964" x="373.581818" y="241.709298" style="fill: #e78ac3; stroke: #ffffff; stroke-width: 0.48"/>
    </g>
   </g>
   <g id="PathCollection_2"/>
   <g id="PathCollection_3"/>
   <g id="PathCollection_4"/>
   <g id="PathCollection_5"/>
   <g id="matplotlib.axis_1">
    <g id="xtick_1">
     <g id="line2d_1">
      <defs>
       <path id="mbb178c30f9" d="M 0 0 
L 0 3.5 
" style="stroke: #000000; stroke-width: 0.8"/>
      </defs>
      <g>
       <use xlink:href="#mbb178c30f9" x="66.858774" y="252" style="stroke: #000000; stroke-width: 0.8"/>
      </g>
     </g>
     <g id="text_1">
      <!-- 0 -->
      <g transform="translate(63.677524 266.598437)scale(0.1 -0.1)">
       <defs>
        <path id="DejaVuSans-30" d="M 2034 4250 
Q 1547 4250 1301 3770 
Q 1056 3291 1056 2328 
Q 1056 1369 1301 889 
Q 1547 409 2034 409 
Q 2525 409 2770 889 
Q 3016 1369 3016 2328 
Q 3016 3291 2770 3770 
Q 2525 4250 2034 4250 
z
M 2034 4750 
Q 2819 4750 3233 4129 
Q 3647 3509 3647 2328 
Q 3647 1150 3233 529 
Q 2819 -91 2034 -91 
Q 1250 -91 836 529 
Q 422 1150 422 2328 
Q 422 3509 836 4129 
Q 1250 4750 2034 4750 
z
" transform="scale(0.015625)"/>
       </defs>
       <use xlink:href="#DejaVuSans-30"/>
      </g>
     </g>
    </g>
    <g id="xtick_2">
     <g id="line2d_2">
      <g>
       <use xlink:href="#mbb178c30f9" x="125.843975" y="252" style="stroke: #000000; stroke-width: 0.8"/>
      </g>
     </g>
     <g id="text_2">
      <!-- 50 -->
      <g transform="translate(119.481475 266.598437)scale(0.1 -0.1)">
       <defs>
        <path id="DejaVuSans-35" d="M 691 4666 
L 3169 4666 
L 3169 4134 
L 1269 4134 
L 1269 2991 
Q 1406 3038 1543 3061 
Q 1681 3084 1819 3084 
Q 2600 3084 3056 2656 
Q 3513 2228 3513 1497 
Q 3513 744 3044 326 
Q 2575 -91 1722 -91 
Q 1428 -91 1123 -41 
Q 819 9 494 109 
L 494 744 
Q 775 591 1075 516 
Q 1375 441 1709 441 
Q 2250 441 2565 725 
Q 2881 1009 2881 1497 
Q 2881 1984 2565 2268 
Q 2250 2553 1709 2553 
Q 1456 2553 1204 2497 
Q 953 2441 691 2322 
L 691 4666 
z
" transform="scale(0.015625)"/>
       </defs>
       <use xlink:href="#DejaVuSans-35"/>
       <use xlink:href="#DejaVuSans-30" x="63.623047"/>
      </g>
     </g>
    </g>
    <g id="xtick_3">
     <g id="line2d_3">
      <g>
       <use xlink:href="#mbb178c30f9" x="184.829175" y="252" style="stroke: #000000; stroke-width: 0.8"/>
      </g>
     </g>
     <g id="text_3">
      <!-- 100 -->
      <g transform="translate(175.285425 266.598437)scale(0.1 -0.1)">
       <defs>
        <path id="DejaVuSans-31" d="M 794 531 
L 1825 531 
L 1825 4091 
L 703 3866 
L 703 4441 
L 1819 4666 
L 2450 4666 
L 2450 531 
L 3481 531 
L 3481 0 
L 794 0 
L 794 531 
z
" transform="scale(0.015625)"/>
       </defs>
       <use xlink:href="#DejaVuSans-31"/>
       <use xlink:href="#DejaVuSans-30" x="63.623047"/>
       <use xlink:href="#DejaVuSans-30" x="127.246094"/>
      </g>
     </g>
    </g>
    <g id="xtick_4">
     <g id="line2d_4">
      <g>
       <use xlink:href="#mbb178c30f9" x="243.814376" y="252" style="stroke: #000000; stroke-width: 0.8"/>
      </g>
     </g>
     <g id="text_4">
      <!-- 150 -->
      <g transform="translate(234.270626 266.598437)scale(0.1 -0.1)">
       <use xlink:href="#DejaVuSans-31"/>
       <use xlink:href="#DejaVuSans-35" x="63.623047"/>
       <use xlink:href="#DejaVuSans-30" x="127.246094"/>
      </g>
     </g>
    </g>
    <g id="xtick_5">
     <g id="line2d_5">
      <g>
       <use xlink:href="#mbb178c30f9" x="302.799577" y="252" style="stroke: #000000; stroke-width: 0.8"/>
      </g>
     </g>
     <g id="text_5">
      <!-- 200 -->
      <g transform="translate(293.255827 266.598437)scale(0.1 -0.1)">
       <defs>
        <path id="DejaVuSans-32" d="M 1228 531 
L 3431 531 
L 3431 0 
L 469 0 
L 469 531 
Q 828 903 1448 1529 
Q 2069 2156 2228 2338 
Q 2531 2678 2651 2914 
Q 2772 3150 2772 3378 
Q 2772 3750 2511 3984 
Q 2250 4219 1831 4219 
Q 1534 4219 1204 4116 
Q 875 4013 500 3803 
L 500 4441 
Q 881 4594 1212 4672 
Q 1544 4750 1819 4750 
Q 2544 4750 2975 4387 
Q 3406 4025 3406 3419 
Q 3406 3131 3298 2873 
Q 3191 2616 2906 2266 
Q 2828 2175 2409 1742 
Q 1991 1309 1228 531 
z
" transform="scale(0.015625)"/>
       </defs>
       <use xlink:href="#DejaVuSans-32"/>
       <use xlink:href="#DejaVuSans-30" x="63.623047"/>
       <use xlink:href="#DejaVuSans-30" x="127.246094"/>
      </g>
     </g>
    </g>
    <g id="xtick_6">
     <g id="line2d_6">
      <g>
       <use xlink:href="#mbb178c30f9" x="361.784778" y="252" style="stroke: #000000; stroke-width: 0.8"/>
      </g>
     </g>
     <g id="text_6">
      <!-- 250 -->
      <g transform="translate(352.241028 266.598437)scale(0.1 -0.1)">
       <use xlink:href="#DejaVuSans-32"/>
       <use xlink:href="#DejaVuSans-35" x="63.623047"/>
       <use xlink:href="#DejaVuSans-30" x="127.246094"/>
      </g>
     </g>
    </g>
    <g id="text_7">
     <!-- Trial number -->
     <g transform="translate(190.082812 280.276563)scale(0.1 -0.1)">
      <defs>
       <path id="DejaVuSans-54" d="M -19 4666 
L 3928 4666 
L 3928 4134 
L 2272 4134 
L 2272 0 
L 1638 0 
L 1638 4134 
L -19 4134 
L -19 4666 
z
" transform="scale(0.015625)"/>
       <path id="DejaVuSans-72" d="M 2631 2963 
Q 2534 3019 2420 3045 
Q 2306 3072 2169 3072 
Q 1681 3072 1420 2755 
Q 1159 2438 1159 1844 
L 1159 0 
L 581 0 
L 581 3500 
L 1159 3500 
L 1159 2956 
Q 1341 3275 1631 3429 
Q 1922 3584 2338 3584 
Q 2397 3584 2469 3576 
Q 2541 3569 2628 3553 
L 2631 2963 
z
" transform="scale(0.015625)"/>
       <path id="DejaVuSans-69" d="M 603 3500 
L 1178 3500 
L 1178 0 
L 603 0 
L 603 3500 
z
M 603 4863 
L 1178 4863 
L 1178 4134 
L 603 4134 
L 603 4863 
z
" transform="scale(0.015625)"/>
       <path id="DejaVuSans-61" d="M 2194 1759 
Q 1497 1759 1228 1600 
Q 959 1441 959 1056 
Q 959 750 1161 570 
Q 1363 391 1709 391 
Q 2188 391 2477 730 
Q 2766 1069 2766 1631 
L 2766 1759 
L 2194 1759 
z
M 3341 1997 
L 3341 0 
L 2766 0 
L 2766 531 
Q 2569 213 2275 61 
Q 1981 -91 1556 -91 
Q 1019 -91 701 211 
Q 384 513 384 1019 
Q 384 1609 779 1909 
Q 1175 2209 1959 2209 
L 2766 2209 
L 2766 2266 
Q 2766 2663 2505 2880 
Q 2244 3097 1772 3097 
Q 1472 3097 1187 3025 
Q 903 2953 641 2809 
L 641 3341 
Q 956 3463 1253 3523 
Q 1550 3584 1831 3584 
Q 2591 3584 2966 3190 
Q 3341 2797 3341 1997 
z
" transform="scale(0.015625)"/>
       <path id="DejaVuSans-6c" d="M 603 4863 
L 1178 4863 
L 1178 0 
L 603 0 
L 603 4863 
z
" transform="scale(0.015625)"/>
       <path id="DejaVuSans-20" transform="scale(0.015625)"/>
       <path id="DejaVuSans-6e" d="M 3513 2113 
L 3513 0 
L 2938 0 
L 2938 2094 
Q 2938 2591 2744 2837 
Q 2550 3084 2163 3084 
Q 1697 3084 1428 2787 
Q 1159 2491 1159 1978 
L 1159 0 
L 581 0 
L 581 3500 
L 1159 3500 
L 1159 2956 
Q 1366 3272 1645 3428 
Q 1925 3584 2291 3584 
Q 2894 3584 3203 3211 
Q 3513 2838 3513 2113 
z
" transform="scale(0.015625)"/>
       <path id="DejaVuSans-75" d="M 544 1381 
L 544 3500 
L 1119 3500 
L 1119 1403 
Q 1119 906 1312 657 
Q 1506 409 1894 409 
Q 2359 409 2629 706 
Q 2900 1003 2900 1516 
L 2900 3500 
L 3475 3500 
L 3475 0 
L 2900 0 
L 2900 538 
Q 2691 219 2414 64 
Q 2138 -91 1772 -91 
Q 1169 -91 856 284 
Q 544 659 544 1381 
z
M 1991 3584 
L 1991 3584 
z
" transform="scale(0.015625)"/>
       <path id="DejaVuSans-6d" d="M 3328 2828 
Q 3544 3216 3844 3400 
Q 4144 3584 4550 3584 
Q 5097 3584 5394 3201 
Q 5691 2819 5691 2113 
L 5691 0 
L 5113 0 
L 5113 2094 
Q 5113 2597 4934 2840 
Q 4756 3084 4391 3084 
Q 3944 3084 3684 2787 
Q 3425 2491 3425 1978 
L 3425 0 
L 2847 0 
L 2847 2094 
Q 2847 2600 2669 2842 
Q 2491 3084 2119 3084 
Q 1678 3084 1418 2786 
Q 1159 2488 1159 1978 
L 1159 0 
L 581 0 
L 581 3500 
L 1159 3500 
L 1159 2956 
Q 1356 3278 1631 3431 
Q 1906 3584 2284 3584 
Q 2666 3584 2933 3390 
Q 3200 3197 3328 2828 
z
" transform="scale(0.015625)"/>
       <path id="DejaVuSans-62" d="M 3116 1747 
Q 3116 2381 2855 2742 
Q 2594 3103 2138 3103 
Q 1681 3103 1420 2742 
Q 1159 2381 1159 1747 
Q 1159 1113 1420 752 
Q 1681 391 2138 391 
Q 2594 391 2855 752 
Q 3116 1113 3116 1747 
z
M 1159 2969 
Q 1341 3281 1617 3432 
Q 1894 3584 2278 3584 
Q 2916 3584 3314 3078 
Q 3713 2572 3713 1747 
Q 3713 922 3314 415 
Q 2916 -91 2278 -91 
Q 1894 -91 1617 61 
Q 1341 213 1159 525 
L 1159 0 
L 581 0 
L 581 4863 
L 1159 4863 
L 1159 2969 
z
" transform="scale(0.015625)"/>
       <path id="DejaVuSans-65" d="M 3597 1894 
L 3597 1613 
L 953 1613 
Q 991 1019 1311 708 
Q 1631 397 2203 397 
Q 2534 397 2845 478 
Q 3156 559 3463 722 
L 3463 178 
Q 3153 47 2828 -22 
Q 2503 -91 2169 -91 
Q 1331 -91 842 396 
Q 353 884 353 1716 
Q 353 2575 817 3079 
Q 1281 3584 2069 3584 
Q 2775 3584 3186 3129 
Q 3597 2675 3597 1894 
z
M 3022 2063 
Q 3016 2534 2758 2815 
Q 2500 3097 2075 3097 
Q 1594 3097 1305 2825 
Q 1016 2553 972 2059 
L 3022 2063 
z
" transform="scale(0.015625)"/>
      </defs>
      <use xlink:href="#DejaVuSans-54"/>
      <use xlink:href="#DejaVuSans-72" x="46.333984"/>
      <use xlink:href="#DejaVuSans-69" x="87.447266"/>
      <use xlink:href="#DejaVuSans-61" x="115.230469"/>
      <use xlink:href="#DejaVuSans-6c" x="176.509766"/>
      <use xlink:href="#DejaVuSans-20" x="204.292969"/>
      <use xlink:href="#DejaVuSans-6e" x="236.080078"/>
      <use xlink:href="#DejaVuSans-75" x="299.458984"/>
      <use xlink:href="#DejaVuSans-6d" x="362.837891"/>
      <use xlink:href="#DejaVuSans-62" x="460.25"/>
      <use xlink:href="#DejaVuSans-65" x="523.726562"/>
      <use xlink:href="#DejaVuSans-72" x="585.25"/>
     </g>
    </g>
   </g>
   <g id="matplotlib.axis_2">
    <g id="ytick_1">
     <g id="line2d_7">
      <defs>
       <path id="m11b2b9d78a" d="M 0 0 
L -3.5 0 
" style="stroke: #000000; stroke-width: 0.8"/>
      </defs>
      <g>
       <use xlink:href="#m11b2b9d78a" x="54" y="242.16188" style="stroke: #000000; stroke-width: 0.8"/>
      </g>
     </g>
     <g id="text_8">
      <!-- 0 -->
      <g transform="translate(40.6375 245.961099)scale(0.1 -0.1)">
       <use xlink:href="#DejaVuSans-30"/>
      </g>
     </g>
    </g>
    <g id="ytick_2">
     <g id="line2d_8">
      <g>
       <use xlink:href="#m11b2b9d78a" x="54" y="214.199931" style="stroke: #000000; stroke-width: 0.8"/>
      </g>
     </g>
     <g id="text_9">
      <!-- 100 -->
      <g transform="translate(27.9125 217.999149)scale(0.1 -0.1)">
       <use xlink:href="#DejaVuSans-31"/>
       <use xlink:href="#DejaVuSans-30" x="63.623047"/>
       <use xlink:href="#DejaVuSans-30" x="127.246094"/>
      </g>
     </g>
    </g>
    <g id="ytick_3">
     <g id="line2d_9">
      <g>
       <use xlink:href="#m11b2b9d78a" x="54" y="186.237981" style="stroke: #000000; stroke-width: 0.8"/>
      </g>
     </g>
     <g id="text_10">
      <!-- 200 -->
      <g transform="translate(27.9125 190.0372)scale(0.1 -0.1)">
       <use xlink:href="#DejaVuSans-32"/>
       <use xlink:href="#DejaVuSans-30" x="63.623047"/>
       <use xlink:href="#DejaVuSans-30" x="127.246094"/>
      </g>
     </g>
    </g>
    <g id="ytick_4">
     <g id="line2d_10">
      <g>
       <use xlink:href="#m11b2b9d78a" x="54" y="158.276032" style="stroke: #000000; stroke-width: 0.8"/>
      </g>
     </g>
     <g id="text_11">
      <!-- 300 -->
      <g transform="translate(27.9125 162.075251)scale(0.1 -0.1)">
       <defs>
        <path id="DejaVuSans-33" d="M 2597 2516 
Q 3050 2419 3304 2112 
Q 3559 1806 3559 1356 
Q 3559 666 3084 287 
Q 2609 -91 1734 -91 
Q 1441 -91 1130 -33 
Q 819 25 488 141 
L 488 750 
Q 750 597 1062 519 
Q 1375 441 1716 441 
Q 2309 441 2620 675 
Q 2931 909 2931 1356 
Q 2931 1769 2642 2001 
Q 2353 2234 1838 2234 
L 1294 2234 
L 1294 2753 
L 1863 2753 
Q 2328 2753 2575 2939 
Q 2822 3125 2822 3475 
Q 2822 3834 2567 4026 
Q 2313 4219 1838 4219 
Q 1578 4219 1281 4162 
Q 984 4106 628 3988 
L 628 4550 
Q 988 4650 1302 4700 
Q 1616 4750 1894 4750 
Q 2613 4750 3031 4423 
Q 3450 4097 3450 3541 
Q 3450 3153 3228 2886 
Q 3006 2619 2597 2516 
z
" transform="scale(0.015625)"/>
       </defs>
       <use xlink:href="#DejaVuSans-33"/>
       <use xlink:href="#DejaVuSans-30" x="63.623047"/>
       <use xlink:href="#DejaVuSans-30" x="127.246094"/>
      </g>
     </g>
    </g>
    <g id="ytick_5">
     <g id="line2d_11">
      <g>
       <use xlink:href="#m11b2b9d78a" x="54" y="130.314082" style="stroke: #000000; stroke-width: 0.8"/>
      </g>
     </g>
     <g id="text_12">
      <!-- 400 -->
      <g transform="translate(27.9125 134.113301)scale(0.1 -0.1)">
       <defs>
        <path id="DejaVuSans-34" d="M 2419 4116 
L 825 1625 
L 2419 1625 
L 2419 4116 
z
M 2253 4666 
L 3047 4666 
L 3047 1625 
L 3713 1625 
L 3713 1100 
L 3047 1100 
L 3047 0 
L 2419 0 
L 2419 1100 
L 313 1100 
L 313 1709 
L 2253 4666 
z
" transform="scale(0.015625)"/>
       </defs>
       <use xlink:href="#DejaVuSans-34"/>
       <use xlink:href="#DejaVuSans-30" x="63.623047"/>
       <use xlink:href="#DejaVuSans-30" x="127.246094"/>
      </g>
     </g>
    </g>
    <g id="ytick_6">
     <g id="line2d_12">
      <g>
       <use xlink:href="#m11b2b9d78a" x="54" y="102.352133" style="stroke: #000000; stroke-width: 0.8"/>
      </g>
     </g>
     <g id="text_13">
      <!-- 500 -->
      <g transform="translate(27.9125 106.151352)scale(0.1 -0.1)">
       <use xlink:href="#DejaVuSans-35"/>
       <use xlink:href="#DejaVuSans-30" x="63.623047"/>
       <use xlink:href="#DejaVuSans-30" x="127.246094"/>
      </g>
     </g>
    </g>
    <g id="ytick_7">
     <g id="line2d_13">
      <g>
       <use xlink:href="#m11b2b9d78a" x="54" y="74.390184" style="stroke: #000000; stroke-width: 0.8"/>
      </g>
     </g>
     <g id="text_14">
      <!-- 600 -->
      <g transform="translate(27.9125 78.189402)scale(0.1 -0.1)">
       <defs>
        <path id="DejaVuSans-36" d="M 2113 2584 
Q 1688 2584 1439 2293 
Q 1191 2003 1191 1497 
Q 1191 994 1439 701 
Q 1688 409 2113 409 
Q 2538 409 2786 701 
Q 3034 994 3034 1497 
Q 3034 2003 2786 2293 
Q 2538 2584 2113 2584 
z
M 3366 4563 
L 3366 3988 
Q 3128 4100 2886 4159 
Q 2644 4219 2406 4219 
Q 1781 4219 1451 3797 
Q 1122 3375 1075 2522 
Q 1259 2794 1537 2939 
Q 1816 3084 2150 3084 
Q 2853 3084 3261 2657 
Q 3669 2231 3669 1497 
Q 3669 778 3244 343 
Q 2819 -91 2113 -91 
Q 1303 -91 875 529 
Q 447 1150 447 2328 
Q 447 3434 972 4092 
Q 1497 4750 2381 4750 
Q 2619 4750 2861 4703 
Q 3103 4656 3366 4563 
z
" transform="scale(0.015625)"/>
       </defs>
       <use xlink:href="#DejaVuSans-36"/>
       <use xlink:href="#DejaVuSans-30" x="63.623047"/>
       <use xlink:href="#DejaVuSans-30" x="127.246094"/>
      </g>
     </g>
    </g>
    <g id="ytick_8">
     <g id="line2d_14">
      <g>
       <use xlink:href="#m11b2b9d78a" x="54" y="46.428234" style="stroke: #000000; stroke-width: 0.8"/>
      </g>
     </g>
     <g id="text_15">
      <!-- 700 -->
      <g transform="translate(27.9125 50.227453)scale(0.1 -0.1)">
       <defs>
        <path id="DejaVuSans-37" d="M 525 4666 
L 3525 4666 
L 3525 4397 
L 1831 0 
L 1172 0 
L 2766 4134 
L 525 4134 
L 525 4666 
z
" transform="scale(0.015625)"/>
       </defs>
       <use xlink:href="#DejaVuSans-37"/>
       <use xlink:href="#DejaVuSans-30" x="63.623047"/>
       <use xlink:href="#DejaVuSans-30" x="127.246094"/>
      </g>
     </g>
    </g>
    <g id="text_16">
     <!-- Reltation MV to No Perturbation error -->
     <g transform="translate(21.832812 236.163594)rotate(-90)scale(0.1 -0.1)">
      <defs>
       <path id="DejaVuSans-52" d="M 2841 2188 
Q 3044 2119 3236 1894 
Q 3428 1669 3622 1275 
L 4263 0 
L 3584 0 
L 2988 1197 
Q 2756 1666 2539 1819 
Q 2322 1972 1947 1972 
L 1259 1972 
L 1259 0 
L 628 0 
L 628 4666 
L 2053 4666 
Q 2853 4666 3247 4331 
Q 3641 3997 3641 3322 
Q 3641 2881 3436 2590 
Q 3231 2300 2841 2188 
z
M 1259 4147 
L 1259 2491 
L 2053 2491 
Q 2509 2491 2742 2702 
Q 2975 2913 2975 3322 
Q 2975 3731 2742 3939 
Q 2509 4147 2053 4147 
L 1259 4147 
z
" transform="scale(0.015625)"/>
       <path id="DejaVuSans-74" d="M 1172 4494 
L 1172 3500 
L 2356 3500 
L 2356 3053 
L 1172 3053 
L 1172 1153 
Q 1172 725 1289 603 
Q 1406 481 1766 481 
L 2356 481 
L 2356 0 
L 1766 0 
Q 1100 0 847 248 
Q 594 497 594 1153 
L 594 3053 
L 172 3053 
L 172 3500 
L 594 3500 
L 594 4494 
L 1172 4494 
z
" transform="scale(0.015625)"/>
       <path id="DejaVuSans-6f" d="M 1959 3097 
Q 1497 3097 1228 2736 
Q 959 2375 959 1747 
Q 959 1119 1226 758 
Q 1494 397 1959 397 
Q 2419 397 2687 759 
Q 2956 1122 2956 1747 
Q 2956 2369 2687 2733 
Q 2419 3097 1959 3097 
z
M 1959 3584 
Q 2709 3584 3137 3096 
Q 3566 2609 3566 1747 
Q 3566 888 3137 398 
Q 2709 -91 1959 -91 
Q 1206 -91 779 398 
Q 353 888 353 1747 
Q 353 2609 779 3096 
Q 1206 3584 1959 3584 
z
" transform="scale(0.015625)"/>
       <path id="DejaVuSans-4d" d="M 628 4666 
L 1569 4666 
L 2759 1491 
L 3956 4666 
L 4897 4666 
L 4897 0 
L 4281 0 
L 4281 4097 
L 3078 897 
L 2444 897 
L 1241 4097 
L 1241 0 
L 628 0 
L 628 4666 
z
" transform="scale(0.015625)"/>
       <path id="DejaVuSans-56" d="M 1831 0 
L 50 4666 
L 709 4666 
L 2188 738 
L 3669 4666 
L 4325 4666 
L 2547 0 
L 1831 0 
z
" transform="scale(0.015625)"/>
       <path id="DejaVuSans-4e" d="M 628 4666 
L 1478 4666 
L 3547 763 
L 3547 4666 
L 4159 4666 
L 4159 0 
L 3309 0 
L 1241 3903 
L 1241 0 
L 628 0 
L 628 4666 
z
" transform="scale(0.015625)"/>
       <path id="DejaVuSans-50" d="M 1259 4147 
L 1259 2394 
L 2053 2394 
Q 2494 2394 2734 2622 
Q 2975 2850 2975 3272 
Q 2975 3691 2734 3919 
Q 2494 4147 2053 4147 
L 1259 4147 
z
M 628 4666 
L 2053 4666 
Q 2838 4666 3239 4311 
Q 3641 3956 3641 3272 
Q 3641 2581 3239 2228 
Q 2838 1875 2053 1875 
L 1259 1875 
L 1259 0 
L 628 0 
L 628 4666 
z
" transform="scale(0.015625)"/>
      </defs>
      <use xlink:href="#DejaVuSans-52"/>
      <use xlink:href="#DejaVuSans-65" x="64.982422"/>
      <use xlink:href="#DejaVuSans-6c" x="126.505859"/>
      <use xlink:href="#DejaVuSans-74" x="154.289062"/>
      <use xlink:href="#DejaVuSans-61" x="193.498047"/>
      <use xlink:href="#DejaVuSans-74" x="254.777344"/>
      <use xlink:href="#DejaVuSans-69" x="293.986328"/>
      <use xlink:href="#DejaVuSans-6f" x="321.769531"/>
      <use xlink:href="#DejaVuSans-6e" x="382.951172"/>
      <use xlink:href="#DejaVuSans-20" x="446.330078"/>
      <use xlink:href="#DejaVuSans-4d" x="478.117188"/>
      <use xlink:href="#DejaVuSans-56" x="564.396484"/>
      <use xlink:href="#DejaVuSans-20" x="632.804688"/>
      <use xlink:href="#DejaVuSans-74" x="664.591797"/>
      <use xlink:href="#DejaVuSans-6f" x="703.800781"/>
      <use xlink:href="#DejaVuSans-20" x="764.982422"/>
      <use xlink:href="#DejaVuSans-4e" x="796.769531"/>
      <use xlink:href="#DejaVuSans-6f" x="871.574219"/>
      <use xlink:href="#DejaVuSans-20" x="932.755859"/>
      <use xlink:href="#DejaVuSans-50" x="964.542969"/>
      <use xlink:href="#DejaVuSans-65" x="1021.220703"/>
      <use xlink:href="#DejaVuSans-72" x="1082.744141"/>
      <use xlink:href="#DejaVuSans-74" x="1123.857422"/>
      <use xlink:href="#DejaVuSans-75" x="1163.066406"/>
      <use xlink:href="#DejaVuSans-72" x="1226.445312"/>
      <use xlink:href="#DejaVuSans-62" x="1267.558594"/>
      <use xlink:href="#DejaVuSans-61" x="1331.035156"/>
      <use xlink:href="#DejaVuSans-74" x="1392.314453"/>
      <use xlink:href="#DejaVuSans-69" x="1431.523438"/>
      <use xlink:href="#DejaVuSans-6f" x="1459.306641"/>
      <use xlink:href="#DejaVuSans-6e" x="1520.488281"/>
      <use xlink:href="#DejaVuSans-20" x="1583.867188"/>
      <use xlink:href="#DejaVuSans-65" x="1615.654297"/>
      <use xlink:href="#DejaVuSans-72" x="1677.177734"/>
      <use xlink:href="#DejaVuSans-72" x="1716.541016"/>
      <use xlink:href="#DejaVuSans-6f" x="1755.404297"/>
      <use xlink:href="#DejaVuSans-72" x="1816.585938"/>
     </g>
    </g>
   </g>
   <g id="line2d_15">
    <path d="M 69.218182 241.864997 
L 70.397886 241.19211 
L 71.57759 238.324273 
L 72.757294 238.860052 
L 73.936998 241.348413 
L 75.116702 241.313554 
L 76.296406 240.2626 
L 77.47611 241.742415 
L 78.655814 241.694299 
L 79.835518 241.152124 
L 81.015222 241.746141 
L 82.194926 241.521756 
L 83.37463 240.411114 
L 84.554334 241.722694 
L 85.734038 241.502972 
L 86.913742 241.617909 
L 88.093446 241.40507 
L 89.27315 216.818966 
L 90.452854 241.34747 
" clip-path="url(#pfe79d86b89)" style="fill: none; stroke: #66c2a5; stroke-width: 1.5; stroke-linecap: square"/>
   </g>
   <g id="line2d_16">
    <path d="M 256.791121 241.875067 
L 257.970825 241.775903 
L 259.150529 240.970246 
L 260.330233 241.620832 
L 261.509937 241.688642 
L 262.689641 241.258914 
L 263.869345 241.96898 
L 265.049049 241.306445 
L 266.228753 226.168007 
L 267.408457 238.883829 
L 268.588161 240.311681 
L 269.767865 241.306445 
L 270.947569 240.935151 
L 272.127273 241.745433 
L 273.306977 240.693384 
L 274.486681 228.970833 
L 275.666385 241.756798 
L 276.846089 241.833439 
L 278.025793 241.947485 
L 279.205497 241.705777 
" clip-path="url(#pfe79d86b89)" style="fill: none; stroke: #fc8d62; stroke-width: 1.5; stroke-linecap: square"/>
   </g>
   <g id="line2d_17">
    <path d="M 162.414799 242.094982 
L 163.594503 241.980356 
L 164.774207 241.7797 
L 165.953911 241.18068 
L 167.133615 241.888549 
L 168.313319 241.873397 
L 169.493023 241.922465 
L 170.672727 238.41648 
L 171.852431 240.884942 
L 173.032135 241.704432 
L 174.211839 241.87058 
L 175.391543 241.468968 
L 176.571247 241.511968 
L 177.750951 241.111267 
L 178.930655 241.829054 
L 180.110359 241.636919 
L 181.290063 241.67754 
L 182.469767 240.764102 
L 183.649471 241.933668 
L 184.829175 241.310346 
" clip-path="url(#pfe79d86b89)" style="fill: none; stroke: #8da0cb; stroke-width: 1.5; stroke-linecap: square"/>
   </g>
   <g id="line2d_18">
    <path d="M 351.167442 242.116364 
L 352.347146 241.869203 
L 353.52685 241.586212 
L 354.706554 241.679495 
L 355.886258 241.366776 
L 357.065962 241.683052 
L 358.245666 240.684401 
L 360.605074 240.929112 
L 361.784778 241.725194 
L 362.964482 44.443636 
L 364.144186 241.461647 
L 365.32389 241.803991 
L 366.503594 240.327848 
L 367.683298 240.660347 
L 368.863002 239.986741 
L 370.042706 241.771658 
L 371.22241 239.864284 
L 372.402114 241.076858 
L 373.581818 241.709298 
" clip-path="url(#pfe79d86b89)" style="fill: none; stroke: #e78ac3; stroke-width: 1.5; stroke-linecap: square"/>
   </g>
   <g id="line2d_19"/>
   <g id="line2d_20"/>
   <g id="line2d_21"/>
   <g id="line2d_22"/>
   <g id="patch_3">
    <path d="M 54 252 
L 54 34.56 
" style="fill: none; stroke: #000000; stroke-width: 0.8; stroke-linejoin: miter; stroke-linecap: square"/>
   </g>
   <g id="patch_4">
    <path d="M 388.8 252 
L 388.8 34.56 
" style="fill: none; stroke: #000000; stroke-width: 0.8; stroke-linejoin: miter; stroke-linecap: square"/>
   </g>
   <g id="patch_5">
    <path d="M 54 252 
L 388.8 252 
" style="fill: none; stroke: #000000; stroke-width: 0.8; stroke-linejoin: miter; stroke-linecap: square"/>
   </g>
   <g id="patch_6">
    <path d="M 54 34.56 
L 388.8 34.56 
" style="fill: none; stroke: #000000; stroke-width: 0.8; stroke-linejoin: miter; stroke-linecap: square"/>
   </g>
   <g id="text_17">
    <!-- No Perturbation error for each trial -->
    <g transform="translate(117.474375 28.56)scale(0.12 -0.12)">
     <defs>
      <path id="DejaVuSans-66" d="M 2375 4863 
L 2375 4384 
L 1825 4384 
Q 1516 4384 1395 4259 
Q 1275 4134 1275 3809 
L 1275 3500 
L 2222 3500 
L 2222 3053 
L 1275 3053 
L 1275 0 
L 697 0 
L 697 3053 
L 147 3053 
L 147 3500 
L 697 3500 
L 697 3744 
Q 697 4328 969 4595 
Q 1241 4863 1831 4863 
L 2375 4863 
z
" transform="scale(0.015625)"/>
      <path id="DejaVuSans-63" d="M 3122 3366 
L 3122 2828 
Q 2878 2963 2633 3030 
Q 2388 3097 2138 3097 
Q 1578 3097 1268 2742 
Q 959 2388 959 1747 
Q 959 1106 1268 751 
Q 1578 397 2138 397 
Q 2388 397 2633 464 
Q 2878 531 3122 666 
L 3122 134 
Q 2881 22 2623 -34 
Q 2366 -91 2075 -91 
Q 1284 -91 818 406 
Q 353 903 353 1747 
Q 353 2603 823 3093 
Q 1294 3584 2113 3584 
Q 2378 3584 2631 3529 
Q 2884 3475 3122 3366 
z
" transform="scale(0.015625)"/>
      <path id="DejaVuSans-68" d="M 3513 2113 
L 3513 0 
L 2938 0 
L 2938 2094 
Q 2938 2591 2744 2837 
Q 2550 3084 2163 3084 
Q 1697 3084 1428 2787 
Q 1159 2491 1159 1978 
L 1159 0 
L 581 0 
L 581 4863 
L 1159 4863 
L 1159 2956 
Q 1366 3272 1645 3428 
Q 1925 3584 2291 3584 
Q 2894 3584 3203 3211 
Q 3513 2838 3513 2113 
z
" transform="scale(0.015625)"/>
     </defs>
     <use xlink:href="#DejaVuSans-4e"/>
     <use xlink:href="#DejaVuSans-6f" x="74.804688"/>
     <use xlink:href="#DejaVuSans-20" x="135.986328"/>
     <use xlink:href="#DejaVuSans-50" x="167.773438"/>
     <use xlink:href="#DejaVuSans-65" x="224.451172"/>
     <use xlink:href="#DejaVuSans-72" x="285.974609"/>
     <use xlink:href="#DejaVuSans-74" x="327.087891"/>
     <use xlink:href="#DejaVuSans-75" x="366.296875"/>
     <use xlink:href="#DejaVuSans-72" x="429.675781"/>
     <use xlink:href="#DejaVuSans-62" x="470.789062"/>
     <use xlink:href="#DejaVuSans-61" x="534.265625"/>
     <use xlink:href="#DejaVuSans-74" x="595.544922"/>
     <use xlink:href="#DejaVuSans-69" x="634.753906"/>
     <use xlink:href="#DejaVuSans-6f" x="662.537109"/>
     <use xlink:href="#DejaVuSans-6e" x="723.71875"/>
     <use xlink:href="#DejaVuSans-20" x="787.097656"/>
     <use xlink:href="#DejaVuSans-65" x="818.884766"/>
     <use xlink:href="#DejaVuSans-72" x="880.408203"/>
     <use xlink:href="#DejaVuSans-72" x="919.771484"/>
     <use xlink:href="#DejaVuSans-6f" x="958.634766"/>
     <use xlink:href="#DejaVuSans-72" x="1019.816406"/>
     <use xlink:href="#DejaVuSans-20" x="1060.929688"/>
     <use xlink:href="#DejaVuSans-66" x="1092.716797"/>
     <use xlink:href="#DejaVuSans-6f" x="1127.921875"/>
     <use xlink:href="#DejaVuSans-72" x="1189.103516"/>
     <use xlink:href="#DejaVuSans-20" x="1230.216797"/>
     <use xlink:href="#DejaVuSans-65" x="1262.003906"/>
     <use xlink:href="#DejaVuSans-61" x="1323.527344"/>
     <use xlink:href="#DejaVuSans-63" x="1384.806641"/>
     <use xlink:href="#DejaVuSans-68" x="1439.787109"/>
     <use xlink:href="#DejaVuSans-20" x="1503.166016"/>
     <use xlink:href="#DejaVuSans-74" x="1534.953125"/>
     <use xlink:href="#DejaVuSans-72" x="1574.162109"/>
     <use xlink:href="#DejaVuSans-69" x="1615.275391"/>
     <use xlink:href="#DejaVuSans-61" x="1643.058594"/>
     <use xlink:href="#DejaVuSans-6c" x="1704.337891"/>
    </g>
   </g>
   <g id="legend_1">
    <g id="patch_7">
     <path d="M 61 101.2725 
L 105.725 101.2725 
Q 107.725 101.2725 107.725 99.2725 
L 107.725 41.56 
Q 107.725 39.56 105.725 39.56 
L 61 39.56 
Q 59 39.56 59 41.56 
L 59 99.2725 
Q 59 101.2725 61 101.2725 
z
" style="fill: #ffffff; opacity: 0.8; stroke: #cccccc; stroke-linejoin: miter"/>
    </g>
    <g id="PathCollection_6">
     <defs>
      <path id="m5725200bce" d="M 0 3 
C 0.795609 3 1.55874 2.683901 2.12132 2.12132 
C 2.683901 1.55874 3 0.795609 3 0 
C 3 -0.795609 2.683901 -1.55874 2.12132 -2.12132 
C 1.55874 -2.683901 0.795609 -3 0 -3 
C -0.795609 -3 -1.55874 -2.683901 -2.12132 -2.12132 
C -2.683901 -1.55874 -3 -0.795609 -3 0 
C -3 0.795609 -2.683901 1.55874 -2.12132 2.12132 
C -1.55874 2.683901 -0.795609 3 0 3 
z
" style="stroke: #66c2a5"/>
     </defs>
     <g>
      <use xlink:href="#m5725200bce" x="73" y="48.533437" style="fill: #66c2a5; stroke: #66c2a5"/>
     </g>
    </g>
    <g id="text_18">
     <!-- 20 -->
     <g transform="translate(91 51.158437)scale(0.1 -0.1)">
      <use xlink:href="#DejaVuSans-32"/>
      <use xlink:href="#DejaVuSans-30" x="63.623047"/>
     </g>
    </g>
    <g id="PathCollection_7">
     <defs>
      <path id="mf6f1d33e2c" d="M 0 3 
C 0.795609 3 1.55874 2.683901 2.12132 2.12132 
C 2.683901 1.55874 3 0.795609 3 0 
C 3 -0.795609 2.683901 -1.55874 2.12132 -2.12132 
C 1.55874 -2.683901 0.795609 -3 0 -3 
C -0.795609 -3 -1.55874 -2.683901 -2.12132 -2.12132 
C -2.683901 -1.55874 -3 -0.795609 -3 0 
C -3 0.795609 -2.683901 1.55874 -2.12132 2.12132 
C -1.55874 2.683901 -0.795609 3 0 3 
z
" style="stroke: #fc8d62"/>
     </defs>
     <g>
      <use xlink:href="#mf6f1d33e2c" x="73" y="63.211562" style="fill: #fc8d62; stroke: #fc8d62"/>
     </g>
    </g>
    <g id="text_19">
     <!-- 30 -->
     <g transform="translate(91 65.836562)scale(0.1 -0.1)">
      <use xlink:href="#DejaVuSans-33"/>
      <use xlink:href="#DejaVuSans-30" x="63.623047"/>
     </g>
    </g>
    <g id="PathCollection_8">
     <defs>
      <path id="m3d6f01be0e" d="M 0 3 
C 0.795609 3 1.55874 2.683901 2.12132 2.12132 
C 2.683901 1.55874 3 0.795609 3 0 
C 3 -0.795609 2.683901 -1.55874 2.12132 -2.12132 
C 1.55874 -2.683901 0.795609 -3 0 -3 
C -0.795609 -3 -1.55874 -2.683901 -2.12132 -2.12132 
C -2.683901 -1.55874 -3 -0.795609 -3 0 
C -3 0.795609 -2.683901 1.55874 -2.12132 2.12132 
C -1.55874 2.683901 -0.795609 3 0 3 
z
" style="stroke: #8da0cb"/>
     </defs>
     <g>
      <use xlink:href="#m3d6f01be0e" x="73" y="77.889687" style="fill: #8da0cb; stroke: #8da0cb"/>
     </g>
    </g>
    <g id="text_20">
     <!-- 40 -->
     <g transform="translate(91 80.514687)scale(0.1 -0.1)">
      <use xlink:href="#DejaVuSans-34"/>
      <use xlink:href="#DejaVuSans-30" x="63.623047"/>
     </g>
    </g>
    <g id="PathCollection_9">
     <defs>
      <path id="mdf184bd1ff" d="M 0 3 
C 0.795609 3 1.55874 2.683901 2.12132 2.12132 
C 2.683901 1.55874 3 0.795609 3 0 
C 3 -0.795609 2.683901 -1.55874 2.12132 -2.12132 
C 1.55874 -2.683901 0.795609 -3 0 -3 
C -0.795609 -3 -1.55874 -2.683901 -2.12132 -2.12132 
C -2.683901 -1.55874 -3 -0.795609 -3 0 
C -3 0.795609 -2.683901 1.55874 -2.12132 2.12132 
C -1.55874 2.683901 -0.795609 3 0 3 
z
" style="stroke: #e78ac3"/>
     </defs>
     <g>
      <use xlink:href="#mdf184bd1ff" x="73" y="92.567813" style="fill: #e78ac3; stroke: #e78ac3"/>
     </g>
    </g>
    <g id="text_21">
     <!-- 60 -->
     <g transform="translate(91 95.192813)scale(0.1 -0.1)">
      <use xlink:href="#DejaVuSans-36"/>
      <use xlink:href="#DejaVuSans-30" x="63.623047"/>
     </g>
    </g>
   </g>
  </g>
 </g>
 <defs>
  <clipPath id="pfe79d86b89">
   <rect x="54" y="34.56" width="334.8" height="217.44"/>
  </clipPath>
 </defs>
</svg>
