<?xml version="1.0" encoding="utf-8" standalone="no"?>
<!DOCTYPE svg PUBLIC "-//W3C//DTD SVG 1.1//EN"
  "http://www.w3.org/Graphics/SVG/1.1/DTD/svg11.dtd">
<svg xmlns:xlink="http://www.w3.org/1999/xlink" width="1224pt" height="576pt" viewBox="0 0 1224 576" xmlns="http://www.w3.org/2000/svg" version="1.1">
 <metadata>
  <rdf:RDF xmlns:dc="http://purl.org/dc/elements/1.1/" xmlns:cc="http://creativecommons.org/ns#" xmlns:rdf="http://www.w3.org/1999/02/22-rdf-syntax-ns#">
   <cc:Work>
    <dc:type rdf:resource="http://purl.org/dc/dcmitype/StillImage"/>
    <dc:date>2024-01-27T13:55:20.203760</dc:date>
    <dc:format>image/svg+xml</dc:format>
    <dc:creator>
     <cc:Agent>
      <dc:title>Matplotlib v3.5.1, https://matplotlib.org/</dc:title>
     </cc:Agent>
    </dc:creator>
   </cc:Work>
  </rdf:RDF>
 </metadata>
 <defs>
  <style type="text/css">*{stroke-linejoin: round; stroke-linecap: butt}</style>
 </defs>
 <g id="figure_1">
  <g id="patch_1">
   <path d="M 0 576 
L 1224 576 
L 1224 0 
L 0 0 
z
" style="fill: #ffffff"/>
  </g>
  <g id="axes_1">
   <g id="patch_2">
    <path d="M 153 504 
L 1101.6 504 
L 1101.6 69.12 
L 153 69.12 
z
" style="fill: #eaeaf2"/>
   </g>
   <g id="matplotlib.axis_1">
    <g id="xtick_1">
     <g id="line2d_1">
      <path d="M 247.481533 504 
L 247.481533 69.12 
" clip-path="url(#pacdbf28251)" style="fill: none; stroke: #ffffff; stroke-linecap: round"/>
     </g>
     <g id="text_1">
      <!-- 100 -->
      <g style="fill: #262626" transform="translate(238.305986 521.373594)scale(0.11 -0.11)">
       <defs>
        <path id="ArialMT-31" d="M 2384 0 
L 1822 0 
L 1822 3584 
Q 1619 3391 1289 3197 
Q 959 3003 697 2906 
L 697 3450 
Q 1169 3672 1522 3987 
Q 1875 4303 2022 4600 
L 2384 4600 
L 2384 0 
z
" transform="scale(0.015625)"/>
        <path id="ArialMT-30" d="M 266 2259 
Q 266 3072 433 3567 
Q 600 4063 929 4331 
Q 1259 4600 1759 4600 
Q 2128 4600 2406 4451 
Q 2684 4303 2865 4023 
Q 3047 3744 3150 3342 
Q 3253 2941 3253 2259 
Q 3253 1453 3087 958 
Q 2922 463 2592 192 
Q 2263 -78 1759 -78 
Q 1097 -78 719 397 
Q 266 969 266 2259 
z
M 844 2259 
Q 844 1131 1108 757 
Q 1372 384 1759 384 
Q 2147 384 2411 759 
Q 2675 1134 2675 2259 
Q 2675 3391 2411 3762 
Q 2147 4134 1753 4134 
Q 1366 4134 1134 3806 
Q 844 3388 844 2259 
z
" transform="scale(0.015625)"/>
       </defs>
       <use xlink:href="#ArialMT-31"/>
       <use xlink:href="#ArialMT-30" x="55.615234"/>
       <use xlink:href="#ArialMT-30" x="111.230469"/>
      </g>
     </g>
    </g>
    <g id="xtick_2">
     <g id="line2d_2">
      <path d="M 382.648247 504 
L 382.648247 69.12 
" clip-path="url(#pacdbf28251)" style="fill: none; stroke: #ffffff; stroke-linecap: round"/>
     </g>
     <g id="text_2">
      <!-- 150 -->
      <g style="fill: #262626" transform="translate(373.4727 521.373594)scale(0.11 -0.11)">
       <defs>
        <path id="ArialMT-35" d="M 266 1200 
L 856 1250 
Q 922 819 1161 601 
Q 1400 384 1738 384 
Q 2144 384 2425 690 
Q 2706 997 2706 1503 
Q 2706 1984 2436 2262 
Q 2166 2541 1728 2541 
Q 1456 2541 1237 2417 
Q 1019 2294 894 2097 
L 366 2166 
L 809 4519 
L 3088 4519 
L 3088 3981 
L 1259 3981 
L 1013 2750 
Q 1425 3038 1878 3038 
Q 2478 3038 2890 2622 
Q 3303 2206 3303 1553 
Q 3303 931 2941 478 
Q 2500 -78 1738 -78 
Q 1113 -78 717 272 
Q 322 622 266 1200 
z
" transform="scale(0.015625)"/>
       </defs>
       <use xlink:href="#ArialMT-31"/>
       <use xlink:href="#ArialMT-35" x="55.615234"/>
       <use xlink:href="#ArialMT-30" x="111.230469"/>
      </g>
     </g>
    </g>
    <g id="xtick_3">
     <g id="line2d_3">
      <path d="M 517.814962 504 
L 517.814962 69.12 
" clip-path="url(#pacdbf28251)" style="fill: none; stroke: #ffffff; stroke-linecap: round"/>
     </g>
     <g id="text_3">
      <!-- 200 -->
      <g style="fill: #262626" transform="translate(508.639415 521.373594)scale(0.11 -0.11)">
       <defs>
        <path id="ArialMT-32" d="M 3222 541 
L 3222 0 
L 194 0 
Q 188 203 259 391 
Q 375 700 629 1000 
Q 884 1300 1366 1694 
Q 2113 2306 2375 2664 
Q 2638 3022 2638 3341 
Q 2638 3675 2398 3904 
Q 2159 4134 1775 4134 
Q 1369 4134 1125 3890 
Q 881 3647 878 3216 
L 300 3275 
Q 359 3922 746 4261 
Q 1134 4600 1788 4600 
Q 2447 4600 2831 4234 
Q 3216 3869 3216 3328 
Q 3216 3053 3103 2787 
Q 2991 2522 2730 2228 
Q 2469 1934 1863 1422 
Q 1356 997 1212 845 
Q 1069 694 975 541 
L 3222 541 
z
" transform="scale(0.015625)"/>
       </defs>
       <use xlink:href="#ArialMT-32"/>
       <use xlink:href="#ArialMT-30" x="55.615234"/>
       <use xlink:href="#ArialMT-30" x="111.230469"/>
      </g>
     </g>
    </g>
    <g id="xtick_4">
     <g id="line2d_4">
      <path d="M 652.981676 504 
L 652.981676 69.12 
" clip-path="url(#pacdbf28251)" style="fill: none; stroke: #ffffff; stroke-linecap: round"/>
     </g>
     <g id="text_4">
      <!-- 250 -->
      <g style="fill: #262626" transform="translate(643.806129 521.373594)scale(0.11 -0.11)">
       <use xlink:href="#ArialMT-32"/>
       <use xlink:href="#ArialMT-35" x="55.615234"/>
       <use xlink:href="#ArialMT-30" x="111.230469"/>
      </g>
     </g>
    </g>
    <g id="xtick_5">
     <g id="line2d_5">
      <path d="M 788.14839 504 
L 788.14839 69.12 
" clip-path="url(#pacdbf28251)" style="fill: none; stroke: #ffffff; stroke-linecap: round"/>
     </g>
     <g id="text_5">
      <!-- 300 -->
      <g style="fill: #262626" transform="translate(778.972843 521.373594)scale(0.11 -0.11)">
       <defs>
        <path id="ArialMT-33" d="M 269 1209 
L 831 1284 
Q 928 806 1161 595 
Q 1394 384 1728 384 
Q 2125 384 2398 659 
Q 2672 934 2672 1341 
Q 2672 1728 2419 1979 
Q 2166 2231 1775 2231 
Q 1616 2231 1378 2169 
L 1441 2663 
Q 1497 2656 1531 2656 
Q 1891 2656 2178 2843 
Q 2466 3031 2466 3422 
Q 2466 3731 2256 3934 
Q 2047 4138 1716 4138 
Q 1388 4138 1169 3931 
Q 950 3725 888 3313 
L 325 3413 
Q 428 3978 793 4289 
Q 1159 4600 1703 4600 
Q 2078 4600 2393 4439 
Q 2709 4278 2876 4000 
Q 3044 3722 3044 3409 
Q 3044 3113 2884 2869 
Q 2725 2625 2413 2481 
Q 2819 2388 3044 2092 
Q 3269 1797 3269 1353 
Q 3269 753 2831 336 
Q 2394 -81 1725 -81 
Q 1122 -81 723 278 
Q 325 638 269 1209 
z
" transform="scale(0.015625)"/>
       </defs>
       <use xlink:href="#ArialMT-33"/>
       <use xlink:href="#ArialMT-30" x="55.615234"/>
       <use xlink:href="#ArialMT-30" x="111.230469"/>
      </g>
     </g>
    </g>
    <g id="xtick_6">
     <g id="line2d_6">
      <path d="M 923.315104 504 
L 923.315104 69.12 
" clip-path="url(#pacdbf28251)" style="fill: none; stroke: #ffffff; stroke-linecap: round"/>
     </g>
     <g id="text_6">
      <!-- 350 -->
      <g style="fill: #262626" transform="translate(914.139557 521.373594)scale(0.11 -0.11)">
       <use xlink:href="#ArialMT-33"/>
       <use xlink:href="#ArialMT-35" x="55.615234"/>
       <use xlink:href="#ArialMT-30" x="111.230469"/>
      </g>
     </g>
    </g>
    <g id="xtick_7">
     <g id="line2d_7">
      <path d="M 1058.481818 504 
L 1058.481818 69.12 
" clip-path="url(#pacdbf28251)" style="fill: none; stroke: #ffffff; stroke-linecap: round"/>
     </g>
     <g id="text_7">
      <!-- 400 -->
      <g style="fill: #262626" transform="translate(1049.306271 521.373594)scale(0.11 -0.11)">
       <defs>
        <path id="ArialMT-34" d="M 2069 0 
L 2069 1097 
L 81 1097 
L 81 1613 
L 2172 4581 
L 2631 4581 
L 2631 1613 
L 3250 1613 
L 3250 1097 
L 2631 1097 
L 2631 0 
L 2069 0 
z
M 2069 1613 
L 2069 3678 
L 634 1613 
L 2069 1613 
z
" transform="scale(0.015625)"/>
       </defs>
       <use xlink:href="#ArialMT-34"/>
       <use xlink:href="#ArialMT-30" x="55.615234"/>
       <use xlink:href="#ArialMT-30" x="111.230469"/>
      </g>
     </g>
    </g>
    <g id="text_8">
     <!-- Trial number -->
     <g style="fill: #262626" transform="translate(593.850938 536.149219)scale(0.12 -0.12)">
      <defs>
       <path id="ArialMT-54" d="M 1659 0 
L 1659 4041 
L 150 4041 
L 150 4581 
L 3781 4581 
L 3781 4041 
L 2266 4041 
L 2266 0 
L 1659 0 
z
" transform="scale(0.015625)"/>
       <path id="ArialMT-72" d="M 416 0 
L 416 3319 
L 922 3319 
L 922 2816 
Q 1116 3169 1280 3281 
Q 1444 3394 1641 3394 
Q 1925 3394 2219 3213 
L 2025 2691 
Q 1819 2813 1613 2813 
Q 1428 2813 1281 2702 
Q 1134 2591 1072 2394 
Q 978 2094 978 1738 
L 978 0 
L 416 0 
z
" transform="scale(0.015625)"/>
       <path id="ArialMT-69" d="M 425 3934 
L 425 4581 
L 988 4581 
L 988 3934 
L 425 3934 
z
M 425 0 
L 425 3319 
L 988 3319 
L 988 0 
L 425 0 
z
" transform="scale(0.015625)"/>
       <path id="ArialMT-61" d="M 2588 409 
Q 2275 144 1986 34 
Q 1697 -75 1366 -75 
Q 819 -75 525 192 
Q 231 459 231 875 
Q 231 1119 342 1320 
Q 453 1522 633 1644 
Q 813 1766 1038 1828 
Q 1203 1872 1538 1913 
Q 2219 1994 2541 2106 
Q 2544 2222 2544 2253 
Q 2544 2597 2384 2738 
Q 2169 2928 1744 2928 
Q 1347 2928 1158 2789 
Q 969 2650 878 2297 
L 328 2372 
Q 403 2725 575 2942 
Q 747 3159 1072 3276 
Q 1397 3394 1825 3394 
Q 2250 3394 2515 3294 
Q 2781 3194 2906 3042 
Q 3031 2891 3081 2659 
Q 3109 2516 3109 2141 
L 3109 1391 
Q 3109 606 3145 398 
Q 3181 191 3288 0 
L 2700 0 
Q 2613 175 2588 409 
z
M 2541 1666 
Q 2234 1541 1622 1453 
Q 1275 1403 1131 1340 
Q 988 1278 909 1158 
Q 831 1038 831 891 
Q 831 666 1001 516 
Q 1172 366 1500 366 
Q 1825 366 2078 508 
Q 2331 650 2450 897 
Q 2541 1088 2541 1459 
L 2541 1666 
z
" transform="scale(0.015625)"/>
       <path id="ArialMT-6c" d="M 409 0 
L 409 4581 
L 972 4581 
L 972 0 
L 409 0 
z
" transform="scale(0.015625)"/>
       <path id="ArialMT-20" transform="scale(0.015625)"/>
       <path id="ArialMT-6e" d="M 422 0 
L 422 3319 
L 928 3319 
L 928 2847 
Q 1294 3394 1984 3394 
Q 2284 3394 2536 3286 
Q 2788 3178 2913 3003 
Q 3038 2828 3088 2588 
Q 3119 2431 3119 2041 
L 3119 0 
L 2556 0 
L 2556 2019 
Q 2556 2363 2490 2533 
Q 2425 2703 2258 2804 
Q 2091 2906 1866 2906 
Q 1506 2906 1245 2678 
Q 984 2450 984 1813 
L 984 0 
L 422 0 
z
" transform="scale(0.015625)"/>
       <path id="ArialMT-75" d="M 2597 0 
L 2597 488 
Q 2209 -75 1544 -75 
Q 1250 -75 995 37 
Q 741 150 617 320 
Q 494 491 444 738 
Q 409 903 409 1263 
L 409 3319 
L 972 3319 
L 972 1478 
Q 972 1038 1006 884 
Q 1059 663 1231 536 
Q 1403 409 1656 409 
Q 1909 409 2131 539 
Q 2353 669 2445 892 
Q 2538 1116 2538 1541 
L 2538 3319 
L 3100 3319 
L 3100 0 
L 2597 0 
z
" transform="scale(0.015625)"/>
       <path id="ArialMT-6d" d="M 422 0 
L 422 3319 
L 925 3319 
L 925 2853 
Q 1081 3097 1340 3245 
Q 1600 3394 1931 3394 
Q 2300 3394 2536 3241 
Q 2772 3088 2869 2813 
Q 3263 3394 3894 3394 
Q 4388 3394 4653 3120 
Q 4919 2847 4919 2278 
L 4919 0 
L 4359 0 
L 4359 2091 
Q 4359 2428 4304 2576 
Q 4250 2725 4106 2815 
Q 3963 2906 3769 2906 
Q 3419 2906 3187 2673 
Q 2956 2441 2956 1928 
L 2956 0 
L 2394 0 
L 2394 2156 
Q 2394 2531 2256 2718 
Q 2119 2906 1806 2906 
Q 1569 2906 1367 2781 
Q 1166 2656 1075 2415 
Q 984 2175 984 1722 
L 984 0 
L 422 0 
z
" transform="scale(0.015625)"/>
       <path id="ArialMT-62" d="M 941 0 
L 419 0 
L 419 4581 
L 981 4581 
L 981 2947 
Q 1338 3394 1891 3394 
Q 2197 3394 2470 3270 
Q 2744 3147 2920 2923 
Q 3097 2700 3197 2384 
Q 3297 2069 3297 1709 
Q 3297 856 2875 390 
Q 2453 -75 1863 -75 
Q 1275 -75 941 416 
L 941 0 
z
M 934 1684 
Q 934 1088 1097 822 
Q 1363 388 1816 388 
Q 2184 388 2453 708 
Q 2722 1028 2722 1663 
Q 2722 2313 2464 2622 
Q 2206 2931 1841 2931 
Q 1472 2931 1203 2611 
Q 934 2291 934 1684 
z
" transform="scale(0.015625)"/>
       <path id="ArialMT-65" d="M 2694 1069 
L 3275 997 
Q 3138 488 2766 206 
Q 2394 -75 1816 -75 
Q 1088 -75 661 373 
Q 234 822 234 1631 
Q 234 2469 665 2931 
Q 1097 3394 1784 3394 
Q 2450 3394 2872 2941 
Q 3294 2488 3294 1666 
Q 3294 1616 3291 1516 
L 816 1516 
Q 847 969 1125 678 
Q 1403 388 1819 388 
Q 2128 388 2347 550 
Q 2566 713 2694 1069 
z
M 847 1978 
L 2700 1978 
Q 2663 2397 2488 2606 
Q 2219 2931 1791 2931 
Q 1403 2931 1139 2672 
Q 875 2413 847 1978 
z
" transform="scale(0.015625)"/>
      </defs>
      <use xlink:href="#ArialMT-54"/>
      <use xlink:href="#ArialMT-72" x="57.333984"/>
      <use xlink:href="#ArialMT-69" x="90.634766"/>
      <use xlink:href="#ArialMT-61" x="112.851562"/>
      <use xlink:href="#ArialMT-6c" x="168.466797"/>
      <use xlink:href="#ArialMT-20" x="190.683594"/>
      <use xlink:href="#ArialMT-6e" x="218.466797"/>
      <use xlink:href="#ArialMT-75" x="274.082031"/>
      <use xlink:href="#ArialMT-6d" x="329.697266"/>
      <use xlink:href="#ArialMT-62" x="412.998047"/>
      <use xlink:href="#ArialMT-65" x="468.613281"/>
      <use xlink:href="#ArialMT-72" x="524.228516"/>
     </g>
    </g>
   </g>
   <g id="matplotlib.axis_2">
    <g id="ytick_1">
     <g id="line2d_8">
      <path d="M 153 484.440437 
L 1101.6 484.440437 
" clip-path="url(#pacdbf28251)" style="fill: none; stroke: #ffffff; stroke-linecap: round"/>
     </g>
     <g id="text_9">
      <!-- 0 -->
      <g style="fill: #262626" transform="translate(137.382969 488.377234)scale(0.11 -0.11)">
       <use xlink:href="#ArialMT-30"/>
      </g>
     </g>
    </g>
    <g id="ytick_2">
     <g id="line2d_9">
      <path d="M 153 416.037654 
L 1101.6 416.037654 
" clip-path="url(#pacdbf28251)" style="fill: none; stroke: #ffffff; stroke-linecap: round"/>
     </g>
     <g id="text_10">
      <!-- 50 -->
      <g style="fill: #262626" transform="translate(131.265938 419.974451)scale(0.11 -0.11)">
       <use xlink:href="#ArialMT-35"/>
       <use xlink:href="#ArialMT-30" x="55.615234"/>
      </g>
     </g>
    </g>
    <g id="ytick_3">
     <g id="line2d_10">
      <path d="M 153 347.634871 
L 1101.6 347.634871 
" clip-path="url(#pacdbf28251)" style="fill: none; stroke: #ffffff; stroke-linecap: round"/>
     </g>
     <g id="text_11">
      <!-- 100 -->
      <g style="fill: #262626" transform="translate(125.148906 351.571668)scale(0.11 -0.11)">
       <use xlink:href="#ArialMT-31"/>
       <use xlink:href="#ArialMT-30" x="55.615234"/>
       <use xlink:href="#ArialMT-30" x="111.230469"/>
      </g>
     </g>
    </g>
    <g id="ytick_4">
     <g id="line2d_11">
      <path d="M 153 279.232088 
L 1101.6 279.232088 
" clip-path="url(#pacdbf28251)" style="fill: none; stroke: #ffffff; stroke-linecap: round"/>
     </g>
     <g id="text_12">
      <!-- 150 -->
      <g style="fill: #262626" transform="translate(125.148906 283.168884)scale(0.11 -0.11)">
       <use xlink:href="#ArialMT-31"/>
       <use xlink:href="#ArialMT-35" x="55.615234"/>
       <use xlink:href="#ArialMT-30" x="111.230469"/>
      </g>
     </g>
    </g>
    <g id="ytick_5">
     <g id="line2d_12">
      <path d="M 153 210.829304 
L 1101.6 210.829304 
" clip-path="url(#pacdbf28251)" style="fill: none; stroke: #ffffff; stroke-linecap: round"/>
     </g>
     <g id="text_13">
      <!-- 200 -->
      <g style="fill: #262626" transform="translate(125.148906 214.766101)scale(0.11 -0.11)">
       <use xlink:href="#ArialMT-32"/>
       <use xlink:href="#ArialMT-30" x="55.615234"/>
       <use xlink:href="#ArialMT-30" x="111.230469"/>
      </g>
     </g>
    </g>
    <g id="ytick_6">
     <g id="line2d_13">
      <path d="M 153 142.426521 
L 1101.6 142.426521 
" clip-path="url(#pacdbf28251)" style="fill: none; stroke: #ffffff; stroke-linecap: round"/>
     </g>
     <g id="text_14">
      <!-- 250 -->
      <g style="fill: #262626" transform="translate(125.148906 146.363318)scale(0.11 -0.11)">
       <use xlink:href="#ArialMT-32"/>
       <use xlink:href="#ArialMT-35" x="55.615234"/>
       <use xlink:href="#ArialMT-30" x="111.230469"/>
      </g>
     </g>
    </g>
    <g id="ytick_7">
     <g id="line2d_14">
      <path d="M 153 74.023738 
L 1101.6 74.023738 
" clip-path="url(#pacdbf28251)" style="fill: none; stroke: #ffffff; stroke-linecap: round"/>
     </g>
     <g id="text_15">
      <!-- 300 -->
      <g style="fill: #262626" transform="translate(125.148906 77.960535)scale(0.11 -0.11)">
       <use xlink:href="#ArialMT-33"/>
       <use xlink:href="#ArialMT-30" x="55.615234"/>
       <use xlink:href="#ArialMT-30" x="111.230469"/>
      </g>
     </g>
    </g>
    <g id="text_16">
     <!-- Relation error angels / MV -->
     <g style="fill: #262626" transform="translate(118.623281 356.252813)rotate(-90)scale(0.12 -0.12)">
      <defs>
       <path id="ArialMT-52" d="M 503 0 
L 503 4581 
L 2534 4581 
Q 3147 4581 3465 4457 
Q 3784 4334 3975 4021 
Q 4166 3709 4166 3331 
Q 4166 2844 3850 2509 
Q 3534 2175 2875 2084 
Q 3116 1969 3241 1856 
Q 3506 1613 3744 1247 
L 4541 0 
L 3778 0 
L 3172 953 
Q 2906 1366 2734 1584 
Q 2563 1803 2427 1890 
Q 2291 1978 2150 2013 
Q 2047 2034 1813 2034 
L 1109 2034 
L 1109 0 
L 503 0 
z
M 1109 2559 
L 2413 2559 
Q 2828 2559 3062 2645 
Q 3297 2731 3419 2920 
Q 3541 3109 3541 3331 
Q 3541 3656 3305 3865 
Q 3069 4075 2559 4075 
L 1109 4075 
L 1109 2559 
z
" transform="scale(0.015625)"/>
       <path id="ArialMT-74" d="M 1650 503 
L 1731 6 
Q 1494 -44 1306 -44 
Q 1000 -44 831 53 
Q 663 150 594 308 
Q 525 466 525 972 
L 525 2881 
L 113 2881 
L 113 3319 
L 525 3319 
L 525 4141 
L 1084 4478 
L 1084 3319 
L 1650 3319 
L 1650 2881 
L 1084 2881 
L 1084 941 
Q 1084 700 1114 631 
Q 1144 563 1211 522 
Q 1278 481 1403 481 
Q 1497 481 1650 503 
z
" transform="scale(0.015625)"/>
       <path id="ArialMT-6f" d="M 213 1659 
Q 213 2581 725 3025 
Q 1153 3394 1769 3394 
Q 2453 3394 2887 2945 
Q 3322 2497 3322 1706 
Q 3322 1066 3130 698 
Q 2938 331 2570 128 
Q 2203 -75 1769 -75 
Q 1072 -75 642 372 
Q 213 819 213 1659 
z
M 791 1659 
Q 791 1022 1069 705 
Q 1347 388 1769 388 
Q 2188 388 2466 706 
Q 2744 1025 2744 1678 
Q 2744 2294 2464 2611 
Q 2184 2928 1769 2928 
Q 1347 2928 1069 2612 
Q 791 2297 791 1659 
z
" transform="scale(0.015625)"/>
       <path id="ArialMT-67" d="M 319 -275 
L 866 -356 
Q 900 -609 1056 -725 
Q 1266 -881 1628 -881 
Q 2019 -881 2231 -725 
Q 2444 -569 2519 -288 
Q 2563 -116 2559 434 
Q 2191 0 1641 0 
Q 956 0 581 494 
Q 206 988 206 1678 
Q 206 2153 378 2554 
Q 550 2956 876 3175 
Q 1203 3394 1644 3394 
Q 2231 3394 2613 2919 
L 2613 3319 
L 3131 3319 
L 3131 450 
Q 3131 -325 2973 -648 
Q 2816 -972 2473 -1159 
Q 2131 -1347 1631 -1347 
Q 1038 -1347 672 -1080 
Q 306 -813 319 -275 
z
M 784 1719 
Q 784 1066 1043 766 
Q 1303 466 1694 466 
Q 2081 466 2343 764 
Q 2606 1063 2606 1700 
Q 2606 2309 2336 2618 
Q 2066 2928 1684 2928 
Q 1309 2928 1046 2623 
Q 784 2319 784 1719 
z
" transform="scale(0.015625)"/>
       <path id="ArialMT-73" d="M 197 991 
L 753 1078 
Q 800 744 1014 566 
Q 1228 388 1613 388 
Q 2000 388 2187 545 
Q 2375 703 2375 916 
Q 2375 1106 2209 1216 
Q 2094 1291 1634 1406 
Q 1016 1563 777 1677 
Q 538 1791 414 1992 
Q 291 2194 291 2438 
Q 291 2659 392 2848 
Q 494 3038 669 3163 
Q 800 3259 1026 3326 
Q 1253 3394 1513 3394 
Q 1903 3394 2198 3281 
Q 2494 3169 2634 2976 
Q 2775 2784 2828 2463 
L 2278 2388 
Q 2241 2644 2061 2787 
Q 1881 2931 1553 2931 
Q 1166 2931 1000 2803 
Q 834 2675 834 2503 
Q 834 2394 903 2306 
Q 972 2216 1119 2156 
Q 1203 2125 1616 2013 
Q 2213 1853 2448 1751 
Q 2684 1650 2818 1456 
Q 2953 1263 2953 975 
Q 2953 694 2789 445 
Q 2625 197 2315 61 
Q 2006 -75 1616 -75 
Q 969 -75 630 194 
Q 291 463 197 991 
z
" transform="scale(0.015625)"/>
       <path id="ArialMT-2f" d="M 0 -78 
L 1328 4659 
L 1778 4659 
L 453 -78 
L 0 -78 
z
" transform="scale(0.015625)"/>
       <path id="ArialMT-4d" d="M 475 0 
L 475 4581 
L 1388 4581 
L 2472 1338 
Q 2622 884 2691 659 
Q 2769 909 2934 1394 
L 4031 4581 
L 4847 4581 
L 4847 0 
L 4263 0 
L 4263 3834 
L 2931 0 
L 2384 0 
L 1059 3900 
L 1059 0 
L 475 0 
z
" transform="scale(0.015625)"/>
       <path id="ArialMT-56" d="M 1803 0 
L 28 4581 
L 684 4581 
L 1875 1253 
Q 2019 853 2116 503 
Q 2222 878 2363 1253 
L 3600 4581 
L 4219 4581 
L 2425 0 
L 1803 0 
z
" transform="scale(0.015625)"/>
      </defs>
      <use xlink:href="#ArialMT-52"/>
      <use xlink:href="#ArialMT-65" x="72.216797"/>
      <use xlink:href="#ArialMT-6c" x="127.832031"/>
      <use xlink:href="#ArialMT-61" x="150.048828"/>
      <use xlink:href="#ArialMT-74" x="205.664062"/>
      <use xlink:href="#ArialMT-69" x="233.447266"/>
      <use xlink:href="#ArialMT-6f" x="255.664062"/>
      <use xlink:href="#ArialMT-6e" x="311.279297"/>
      <use xlink:href="#ArialMT-20" x="366.894531"/>
      <use xlink:href="#ArialMT-65" x="394.677734"/>
      <use xlink:href="#ArialMT-72" x="450.292969"/>
      <use xlink:href="#ArialMT-72" x="483.59375"/>
      <use xlink:href="#ArialMT-6f" x="516.894531"/>
      <use xlink:href="#ArialMT-72" x="572.509766"/>
      <use xlink:href="#ArialMT-20" x="605.810547"/>
      <use xlink:href="#ArialMT-61" x="633.59375"/>
      <use xlink:href="#ArialMT-6e" x="689.208984"/>
      <use xlink:href="#ArialMT-67" x="744.824219"/>
      <use xlink:href="#ArialMT-65" x="800.439453"/>
      <use xlink:href="#ArialMT-6c" x="856.054688"/>
      <use xlink:href="#ArialMT-73" x="878.271484"/>
      <use xlink:href="#ArialMT-20" x="928.271484"/>
      <use xlink:href="#ArialMT-2f" x="956.054688"/>
      <use xlink:href="#ArialMT-20" x="983.837891"/>
      <use xlink:href="#ArialMT-4d" x="1011.621094"/>
      <use xlink:href="#ArialMT-56" x="1094.921875"/>
     </g>
    </g>
   </g>
   <g id="PathCollection_1">
    <defs>
     <path id="C0_0_44e42525ce" d="M 0 3 
C 0.795609 3 1.55874 2.683901 2.12132 2.12132 
C 2.683901 1.55874 3 0.795609 3 -0 
C 3 -0.795609 2.683901 -1.55874 2.12132 -2.12132 
C 1.55874 -2.683901 0.795609 -3 0 -3 
C -0.795609 -3 -1.55874 -2.683901 -2.12132 -2.12132 
C -2.683901 -1.55874 -3 -0.795609 -3 0 
C -3 0.795609 -2.683901 1.55874 -2.12132 2.12132 
C -1.55874 2.683901 -0.795609 3 0 3 
z
"/>
    </defs>
    <g clip-path="url(#pacdbf28251)">
     <use xlink:href="#C0_0_44e42525ce" x="196.118182" y="304.192935" style="fill: #8da0cb; stroke: #ffffff; stroke-width: 0.48"/>
    </g>
    <g clip-path="url(#pacdbf28251)">
     <use xlink:href="#C0_0_44e42525ce" x="198.821516" y="291.572904" style="fill: #8da0cb; stroke: #ffffff; stroke-width: 0.48"/>
    </g>
    <g clip-path="url(#pacdbf28251)">
     <use xlink:href="#C0_0_44e42525ce" x="201.52485" y="263.229607" style="fill: #8da0cb; stroke: #ffffff; stroke-width: 0.48"/>
    </g>
    <g clip-path="url(#pacdbf28251)">
     <use xlink:href="#C0_0_44e42525ce" x="204.228185" y="369.672034" style="fill: #8da0cb; stroke: #ffffff; stroke-width: 0.48"/>
    </g>
    <g clip-path="url(#pacdbf28251)">
     <use xlink:href="#C0_0_44e42525ce" x="206.931519" y="298.698862" style="fill: #8da0cb; stroke: #ffffff; stroke-width: 0.48"/>
    </g>
    <g clip-path="url(#pacdbf28251)">
     <use xlink:href="#C0_0_44e42525ce" x="209.634853" y="130.432062" style="fill: #8da0cb; stroke: #ffffff; stroke-width: 0.48"/>
    </g>
    <g clip-path="url(#pacdbf28251)">
     <use xlink:href="#C0_0_44e42525ce" x="212.338188" y="347.67868" style="fill: #8da0cb; stroke: #ffffff; stroke-width: 0.48"/>
    </g>
    <g clip-path="url(#pacdbf28251)">
     <use xlink:href="#C0_0_44e42525ce" x="215.041522" y="441.171911" style="fill: #8da0cb; stroke: #ffffff; stroke-width: 0.48"/>
    </g>
    <g clip-path="url(#pacdbf28251)">
     <use xlink:href="#C0_0_44e42525ce" x="217.744856" y="415.448408" style="fill: #8da0cb; stroke: #ffffff; stroke-width: 0.48"/>
    </g>
    <g clip-path="url(#pacdbf28251)">
     <use xlink:href="#C0_0_44e42525ce" x="220.44819" y="350.68367" style="fill: #8da0cb; stroke: #ffffff; stroke-width: 0.48"/>
    </g>
    <g clip-path="url(#pacdbf28251)">
     <use xlink:href="#C0_0_44e42525ce" x="223.151525" y="306.224955" style="fill: #8da0cb; stroke: #ffffff; stroke-width: 0.48"/>
    </g>
    <g clip-path="url(#pacdbf28251)">
     <use xlink:href="#C0_0_44e42525ce" x="225.854859" y="298.183564" style="fill: #8da0cb; stroke: #ffffff; stroke-width: 0.48"/>
    </g>
    <g clip-path="url(#pacdbf28251)">
     <use xlink:href="#C0_0_44e42525ce" x="228.558193" y="451.544422" style="fill: #8da0cb; stroke: #ffffff; stroke-width: 0.48"/>
    </g>
    <g clip-path="url(#pacdbf28251)">
     <use xlink:href="#C0_0_44e42525ce" x="231.261528" y="392.128484" style="fill: #8da0cb; stroke: #ffffff; stroke-width: 0.48"/>
    </g>
    <g clip-path="url(#pacdbf28251)">
     <use xlink:href="#C0_0_44e42525ce" x="233.964862" y="475.588008" style="fill: #8da0cb; stroke: #ffffff; stroke-width: 0.48"/>
    </g>
    <g clip-path="url(#pacdbf28251)">
     <use xlink:href="#C0_0_44e42525ce" x="242.074865" y="413.039976" style="fill: #8da0cb; stroke: #ffffff; stroke-width: 0.48"/>
    </g>
    <g clip-path="url(#pacdbf28251)">
     <use xlink:href="#C0_0_44e42525ce" x="244.778199" y="467.711552" style="fill: #8da0cb; stroke: #ffffff; stroke-width: 0.48"/>
    </g>
    <g clip-path="url(#pacdbf28251)">
     <use xlink:href="#C0_0_44e42525ce" x="247.481533" y="448.62656" style="fill: #8da0cb; stroke: #ffffff; stroke-width: 0.48"/>
    </g>
    <g clip-path="url(#pacdbf28251)">
     <use xlink:href="#C0_0_44e42525ce" x="466.45161" y="167.004404" style="fill: #66c2a5; stroke: #ffffff; stroke-width: 0.48"/>
    </g>
    <g clip-path="url(#pacdbf28251)">
     <use xlink:href="#C0_0_44e42525ce" x="469.154944" y="247.989236" style="fill: #66c2a5; stroke: #ffffff; stroke-width: 0.48"/>
    </g>
    <g clip-path="url(#pacdbf28251)">
     <use xlink:href="#C0_0_44e42525ce" x="471.858279" y="405.581223" style="fill: #66c2a5; stroke: #ffffff; stroke-width: 0.48"/>
    </g>
    <g clip-path="url(#pacdbf28251)">
     <use xlink:href="#C0_0_44e42525ce" x="474.561613" y="320.879571" style="fill: #66c2a5; stroke: #ffffff; stroke-width: 0.48"/>
    </g>
    <g clip-path="url(#pacdbf28251)">
     <use xlink:href="#C0_0_44e42525ce" x="477.264947" y="322.365407" style="fill: #66c2a5; stroke: #ffffff; stroke-width: 0.48"/>
    </g>
    <g clip-path="url(#pacdbf28251)">
     <use xlink:href="#C0_0_44e42525ce" x="479.968282" y="466.357752" style="fill: #66c2a5; stroke: #ffffff; stroke-width: 0.48"/>
    </g>
    <g clip-path="url(#pacdbf28251)">
     <use xlink:href="#C0_0_44e42525ce" x="482.671616" y="290.717981" style="fill: #66c2a5; stroke: #ffffff; stroke-width: 0.48"/>
    </g>
    <g clip-path="url(#pacdbf28251)">
     <use xlink:href="#C0_0_44e42525ce" x="485.37495" y="344.063431" style="fill: #66c2a5; stroke: #ffffff; stroke-width: 0.48"/>
    </g>
    <g clip-path="url(#pacdbf28251)">
     <use xlink:href="#C0_0_44e42525ce" x="488.078284" y="466.98096" style="fill: #66c2a5; stroke: #ffffff; stroke-width: 0.48"/>
    </g>
    <g clip-path="url(#pacdbf28251)">
     <use xlink:href="#C0_0_44e42525ce" x="490.781619" y="424.073446" style="fill: #66c2a5; stroke: #ffffff; stroke-width: 0.48"/>
    </g>
    <g clip-path="url(#pacdbf28251)">
     <use xlink:href="#C0_0_44e42525ce" x="493.484953" y="320.816722" style="fill: #66c2a5; stroke: #ffffff; stroke-width: 0.48"/>
    </g>
    <g clip-path="url(#pacdbf28251)">
     <use xlink:href="#C0_0_44e42525ce" x="496.188287" y="366.666937" style="fill: #66c2a5; stroke: #ffffff; stroke-width: 0.48"/>
    </g>
    <g clip-path="url(#pacdbf28251)">
     <use xlink:href="#C0_0_44e42525ce" x="498.891622" y="380.012575" style="fill: #66c2a5; stroke: #ffffff; stroke-width: 0.48"/>
    </g>
    <g clip-path="url(#pacdbf28251)">
     <use xlink:href="#C0_0_44e42525ce" x="501.594956" y="412.374233" style="fill: #66c2a5; stroke: #ffffff; stroke-width: 0.48"/>
    </g>
    <g clip-path="url(#pacdbf28251)">
     <use xlink:href="#C0_0_44e42525ce" x="504.29829" y="356.335995" style="fill: #66c2a5; stroke: #ffffff; stroke-width: 0.48"/>
    </g>
    <g clip-path="url(#pacdbf28251)">
     <use xlink:href="#C0_0_44e42525ce" x="507.001624" y="465.767032" style="fill: #66c2a5; stroke: #ffffff; stroke-width: 0.48"/>
    </g>
    <g clip-path="url(#pacdbf28251)">
     <use xlink:href="#C0_0_44e42525ce" x="509.704959" y="413.735168" style="fill: #66c2a5; stroke: #ffffff; stroke-width: 0.48"/>
    </g>
    <g clip-path="url(#pacdbf28251)">
     <use xlink:href="#C0_0_44e42525ce" x="512.408293" y="434.45317" style="fill: #66c2a5; stroke: #ffffff; stroke-width: 0.48"/>
    </g>
    <g clip-path="url(#pacdbf28251)">
     <use xlink:href="#C0_0_44e42525ce" x="515.111627" y="446.142442" style="fill: #66c2a5; stroke: #ffffff; stroke-width: 0.48"/>
    </g>
    <g clip-path="url(#pacdbf28251)">
     <use xlink:href="#C0_0_44e42525ce" x="517.814962" y="484.232727" style="fill: #66c2a5; stroke: #ffffff; stroke-width: 0.48"/>
    </g>
    <g clip-path="url(#pacdbf28251)">
     <use xlink:href="#C0_0_44e42525ce" x="736.785038" y="88.887273" style="fill: #e78ac3; stroke: #ffffff; stroke-width: 0.48"/>
    </g>
    <g clip-path="url(#pacdbf28251)">
     <use xlink:href="#C0_0_44e42525ce" x="739.488373" y="219.756999" style="fill: #e78ac3; stroke: #ffffff; stroke-width: 0.48"/>
    </g>
    <g clip-path="url(#pacdbf28251)">
     <use xlink:href="#C0_0_44e42525ce" x="742.191707" y="171.725494" style="fill: #e78ac3; stroke: #ffffff; stroke-width: 0.48"/>
    </g>
    <g clip-path="url(#pacdbf28251)">
     <use xlink:href="#C0_0_44e42525ce" x="744.895041" y="313.052163" style="fill: #e78ac3; stroke: #ffffff; stroke-width: 0.48"/>
    </g>
    <g clip-path="url(#pacdbf28251)">
     <use xlink:href="#C0_0_44e42525ce" x="747.598376" y="303.195206" style="fill: #e78ac3; stroke: #ffffff; stroke-width: 0.48"/>
    </g>
    <g clip-path="url(#pacdbf28251)">
     <use xlink:href="#C0_0_44e42525ce" x="750.30171" y="265.970834" style="fill: #e78ac3; stroke: #ffffff; stroke-width: 0.48"/>
    </g>
    <g clip-path="url(#pacdbf28251)">
     <use xlink:href="#C0_0_44e42525ce" x="753.005044" y="331.809117" style="fill: #e78ac3; stroke: #ffffff; stroke-width: 0.48"/>
    </g>
    <g clip-path="url(#pacdbf28251)">
     <use xlink:href="#C0_0_44e42525ce" x="755.708378" y="461.965616" style="fill: #e78ac3; stroke: #ffffff; stroke-width: 0.48"/>
    </g>
    <g clip-path="url(#pacdbf28251)">
     <use xlink:href="#C0_0_44e42525ce" x="758.411713" y="345.363821" style="fill: #e78ac3; stroke: #ffffff; stroke-width: 0.48"/>
    </g>
    <g clip-path="url(#pacdbf28251)">
     <use xlink:href="#C0_0_44e42525ce" x="761.115047" y="481.833709" style="fill: #e78ac3; stroke: #ffffff; stroke-width: 0.48"/>
    </g>
    <g clip-path="url(#pacdbf28251)">
     <use xlink:href="#C0_0_44e42525ce" x="763.818381" y="397.520649" style="fill: #e78ac3; stroke: #ffffff; stroke-width: 0.48"/>
    </g>
    <g clip-path="url(#pacdbf28251)">
     <use xlink:href="#C0_0_44e42525ce" x="769.22505" y="375.756588" style="fill: #e78ac3; stroke: #ffffff; stroke-width: 0.48"/>
    </g>
    <g clip-path="url(#pacdbf28251)">
     <use xlink:href="#C0_0_44e42525ce" x="771.928384" y="267.763513" style="fill: #e78ac3; stroke: #ffffff; stroke-width: 0.48"/>
    </g>
    <g clip-path="url(#pacdbf28251)">
     <use xlink:href="#C0_0_44e42525ce" x="774.631718" y="465.975167" style="fill: #e78ac3; stroke: #ffffff; stroke-width: 0.48"/>
    </g>
    <g clip-path="url(#pacdbf28251)">
     <use xlink:href="#C0_0_44e42525ce" x="777.335053" y="345.374103" style="fill: #e78ac3; stroke: #ffffff; stroke-width: 0.48"/>
    </g>
    <g clip-path="url(#pacdbf28251)">
     <use xlink:href="#C0_0_44e42525ce" x="780.038387" y="472.296021" style="fill: #e78ac3; stroke: #ffffff; stroke-width: 0.48"/>
    </g>
    <g clip-path="url(#pacdbf28251)">
     <use xlink:href="#C0_0_44e42525ce" x="782.741721" y="361.398713" style="fill: #e78ac3; stroke: #ffffff; stroke-width: 0.48"/>
    </g>
    <g clip-path="url(#pacdbf28251)">
     <use xlink:href="#C0_0_44e42525ce" x="785.445056" y="457.228988" style="fill: #e78ac3; stroke: #ffffff; stroke-width: 0.48"/>
    </g>
    <g clip-path="url(#pacdbf28251)">
     <use xlink:href="#C0_0_44e42525ce" x="788.14839" y="446.236399" style="fill: #e78ac3; stroke: #ffffff; stroke-width: 0.48"/>
    </g>
    <g clip-path="url(#pacdbf28251)">
     <use xlink:href="#C0_0_44e42525ce" x="1007.118467" y="259.125903" style="fill: #fc8d62; stroke: #ffffff; stroke-width: 0.48"/>
    </g>
    <g clip-path="url(#pacdbf28251)">
     <use xlink:href="#C0_0_44e42525ce" x="1009.821801" y="291.783476" style="fill: #fc8d62; stroke: #ffffff; stroke-width: 0.48"/>
    </g>
    <g clip-path="url(#pacdbf28251)">
     <use xlink:href="#C0_0_44e42525ce" x="1012.525135" y="360.663625" style="fill: #fc8d62; stroke: #ffffff; stroke-width: 0.48"/>
    </g>
    <g clip-path="url(#pacdbf28251)">
     <use xlink:href="#C0_0_44e42525ce" x="1015.22847" y="370.4474" style="fill: #fc8d62; stroke: #ffffff; stroke-width: 0.48"/>
    </g>
    <g clip-path="url(#pacdbf28251)">
     <use xlink:href="#C0_0_44e42525ce" x="1017.931804" y="407.398577" style="fill: #fc8d62; stroke: #ffffff; stroke-width: 0.48"/>
    </g>
    <g clip-path="url(#pacdbf28251)">
     <use xlink:href="#C0_0_44e42525ce" x="1020.635138" y="474.226526" style="fill: #fc8d62; stroke: #ffffff; stroke-width: 0.48"/>
    </g>
    <g clip-path="url(#pacdbf28251)">
     <use xlink:href="#C0_0_44e42525ce" x="1023.338472" y="420.883707" style="fill: #fc8d62; stroke: #ffffff; stroke-width: 0.48"/>
    </g>
    <g clip-path="url(#pacdbf28251)">
     <use xlink:href="#C0_0_44e42525ce" x="1026.041807" y="471.434422" style="fill: #fc8d62; stroke: #ffffff; stroke-width: 0.48"/>
    </g>
    <g clip-path="url(#pacdbf28251)">
     <use xlink:href="#C0_0_44e42525ce" x="1028.745141" y="440.384718" style="fill: #fc8d62; stroke: #ffffff; stroke-width: 0.48"/>
    </g>
    <g clip-path="url(#pacdbf28251)">
     <use xlink:href="#C0_0_44e42525ce" x="1031.448475" y="386.915832" style="fill: #fc8d62; stroke: #ffffff; stroke-width: 0.48"/>
    </g>
    <g clip-path="url(#pacdbf28251)">
     <use xlink:href="#C0_0_44e42525ce" x="1034.15181" y="408.394067" style="fill: #fc8d62; stroke: #ffffff; stroke-width: 0.48"/>
    </g>
    <g clip-path="url(#pacdbf28251)">
     <use xlink:href="#C0_0_44e42525ce" x="1036.855144" y="430.887005" style="fill: #fc8d62; stroke: #ffffff; stroke-width: 0.48"/>
    </g>
    <g clip-path="url(#pacdbf28251)">
     <use xlink:href="#C0_0_44e42525ce" x="1039.558478" y="455.848341" style="fill: #fc8d62; stroke: #ffffff; stroke-width: 0.48"/>
    </g>
    <g clip-path="url(#pacdbf28251)">
     <use xlink:href="#C0_0_44e42525ce" x="1042.261812" y="462.977454" style="fill: #fc8d62; stroke: #ffffff; stroke-width: 0.48"/>
    </g>
    <g clip-path="url(#pacdbf28251)">
     <use xlink:href="#C0_0_44e42525ce" x="1044.965147" y="453.736942" style="fill: #fc8d62; stroke: #ffffff; stroke-width: 0.48"/>
    </g>
    <g clip-path="url(#pacdbf28251)">
     <use xlink:href="#C0_0_44e42525ce" x="1047.668481" y="444.451634" style="fill: #fc8d62; stroke: #ffffff; stroke-width: 0.48"/>
    </g>
    <g clip-path="url(#pacdbf28251)">
     <use xlink:href="#C0_0_44e42525ce" x="1050.371815" y="437.384018" style="fill: #fc8d62; stroke: #ffffff; stroke-width: 0.48"/>
    </g>
    <g clip-path="url(#pacdbf28251)">
     <use xlink:href="#C0_0_44e42525ce" x="1053.07515" y="440.31992" style="fill: #fc8d62; stroke: #ffffff; stroke-width: 0.48"/>
    </g>
    <g clip-path="url(#pacdbf28251)">
     <use xlink:href="#C0_0_44e42525ce" x="1055.778484" y="470.020631" style="fill: #fc8d62; stroke: #ffffff; stroke-width: 0.48"/>
    </g>
    <g clip-path="url(#pacdbf28251)">
     <use xlink:href="#C0_0_44e42525ce" x="1058.481818" y="392.45166" style="fill: #fc8d62; stroke: #ffffff; stroke-width: 0.48"/>
    </g>
   </g>
   <g id="PathCollection_2"/>
   <g id="PathCollection_3"/>
   <g id="PathCollection_4"/>
   <g id="PathCollection_5"/>
   <g id="line2d_15">
    <path d="M 466.45161 167.004404 
L 469.154944 247.989236 
L 471.858279 405.581223 
L 474.561613 320.879571 
L 477.264947 322.365407 
L 479.968282 466.357752 
L 482.671616 290.717981 
L 485.37495 344.063431 
L 488.078284 466.98096 
L 490.781619 424.073446 
L 493.484953 320.816722 
L 496.188287 366.666937 
L 498.891622 380.012575 
L 501.594956 412.374233 
L 504.29829 356.335995 
L 507.001624 465.767032 
L 509.704959 413.735168 
L 512.408293 434.45317 
L 515.111627 446.142442 
L 517.814962 484.232727 
" clip-path="url(#pacdbf28251)" style="fill: none; stroke: #66c2a5; stroke-width: 1.5; stroke-linecap: round"/>
   </g>
   <g id="line2d_16">
    <path d="M 1007.118467 259.125903 
L 1009.821801 291.783476 
L 1012.525135 360.663625 
L 1015.22847 370.4474 
L 1017.931804 407.398577 
L 1020.635138 474.226526 
L 1023.338472 420.883707 
L 1026.041807 471.434422 
L 1028.745141 440.384718 
L 1031.448475 386.915832 
L 1034.15181 408.394067 
L 1036.855144 430.887005 
L 1039.558478 455.848341 
L 1042.261812 462.977454 
L 1044.965147 453.736942 
L 1047.668481 444.451634 
L 1050.371815 437.384018 
L 1053.07515 440.31992 
L 1055.778484 470.020631 
L 1058.481818 392.45166 
" clip-path="url(#pacdbf28251)" style="fill: none; stroke: #fc8d62; stroke-width: 1.5; stroke-linecap: round"/>
   </g>
   <g id="line2d_17">
    <path d="M 196.118182 304.192935 
L 198.821516 291.572904 
L 201.52485 263.229607 
L 204.228185 369.672034 
L 206.931519 298.698862 
L 209.634853 130.432062 
L 212.338188 347.67868 
L 215.041522 441.171911 
L 217.744856 415.448408 
L 220.44819 350.68367 
L 223.151525 306.224955 
L 225.854859 298.183564 
L 228.558193 451.544422 
L 231.261528 392.128484 
L 233.964862 475.588008 
L 242.074865 413.039976 
L 244.778199 467.711552 
L 247.481533 448.62656 
" clip-path="url(#pacdbf28251)" style="fill: none; stroke: #8da0cb; stroke-width: 1.5; stroke-linecap: round"/>
   </g>
   <g id="line2d_18">
    <path d="M 736.785038 88.887273 
L 739.488373 219.756999 
L 742.191707 171.725494 
L 744.895041 313.052163 
L 747.598376 303.195206 
L 750.30171 265.970834 
L 753.005044 331.809117 
L 755.708378 461.965616 
L 758.411713 345.363821 
L 761.115047 481.833709 
L 763.818381 397.520649 
L 769.22505 375.756588 
L 771.928384 267.763513 
L 774.631718 465.975167 
L 777.335053 345.374103 
L 780.038387 472.296021 
L 782.741721 361.398713 
L 785.445056 457.228988 
L 788.14839 446.236399 
" clip-path="url(#pacdbf28251)" style="fill: none; stroke: #e78ac3; stroke-width: 1.5; stroke-linecap: round"/>
   </g>
   <g id="line2d_19"/>
   <g id="line2d_20"/>
   <g id="line2d_21"/>
   <g id="line2d_22"/>
   <g id="patch_3">
    <path d="M 153 504 
L 153 69.12 
" style="fill: none; stroke: #ffffff; stroke-width: 1.25; stroke-linejoin: miter; stroke-linecap: square"/>
   </g>
   <g id="patch_4">
    <path d="M 1101.6 504 
L 1101.6 69.12 
" style="fill: none; stroke: #ffffff; stroke-width: 1.25; stroke-linejoin: miter; stroke-linecap: square"/>
   </g>
   <g id="patch_5">
    <path d="M 153 504 
L 1101.6 504 
" style="fill: none; stroke: #ffffff; stroke-width: 1.25; stroke-linejoin: miter; stroke-linecap: square"/>
   </g>
   <g id="patch_6">
    <path d="M 153 69.12 
L 1101.6 69.12 
" style="fill: none; stroke: #ffffff; stroke-width: 1.25; stroke-linejoin: miter; stroke-linecap: square"/>
   </g>
   <g id="text_17">
    <!-- Relation between error angels / MV in the Aftereffect trials -->
    <g style="fill: #262626" transform="translate(474.00375 63.12)scale(0.12 -0.12)">
     <defs>
      <path id="ArialMT-77" d="M 1034 0 
L 19 3319 
L 600 3319 
L 1128 1403 
L 1325 691 
Q 1338 744 1497 1375 
L 2025 3319 
L 2603 3319 
L 3100 1394 
L 3266 759 
L 3456 1400 
L 4025 3319 
L 4572 3319 
L 3534 0 
L 2950 0 
L 2422 1988 
L 2294 2553 
L 1622 0 
L 1034 0 
z
" transform="scale(0.015625)"/>
      <path id="ArialMT-68" d="M 422 0 
L 422 4581 
L 984 4581 
L 984 2938 
Q 1378 3394 1978 3394 
Q 2347 3394 2619 3248 
Q 2891 3103 3008 2847 
Q 3125 2591 3125 2103 
L 3125 0 
L 2563 0 
L 2563 2103 
Q 2563 2525 2380 2717 
Q 2197 2909 1863 2909 
Q 1613 2909 1392 2779 
Q 1172 2650 1078 2428 
Q 984 2206 984 1816 
L 984 0 
L 422 0 
z
" transform="scale(0.015625)"/>
      <path id="ArialMT-41" d="M -9 0 
L 1750 4581 
L 2403 4581 
L 4278 0 
L 3588 0 
L 3053 1388 
L 1138 1388 
L 634 0 
L -9 0 
z
M 1313 1881 
L 2866 1881 
L 2388 3150 
Q 2169 3728 2063 4100 
Q 1975 3659 1816 3225 
L 1313 1881 
z
" transform="scale(0.015625)"/>
      <path id="ArialMT-66" d="M 556 0 
L 556 2881 
L 59 2881 
L 59 3319 
L 556 3319 
L 556 3672 
Q 556 4006 616 4169 
Q 697 4388 901 4523 
Q 1106 4659 1475 4659 
Q 1713 4659 2000 4603 
L 1916 4113 
Q 1741 4144 1584 4144 
Q 1328 4144 1222 4034 
Q 1116 3925 1116 3625 
L 1116 3319 
L 1763 3319 
L 1763 2881 
L 1116 2881 
L 1116 0 
L 556 0 
z
" transform="scale(0.015625)"/>
      <path id="ArialMT-63" d="M 2588 1216 
L 3141 1144 
Q 3050 572 2676 248 
Q 2303 -75 1759 -75 
Q 1078 -75 664 370 
Q 250 816 250 1647 
Q 250 2184 428 2587 
Q 606 2991 970 3192 
Q 1334 3394 1763 3394 
Q 2303 3394 2647 3120 
Q 2991 2847 3088 2344 
L 2541 2259 
Q 2463 2594 2264 2762 
Q 2066 2931 1784 2931 
Q 1359 2931 1093 2626 
Q 828 2322 828 1663 
Q 828 994 1084 691 
Q 1341 388 1753 388 
Q 2084 388 2306 591 
Q 2528 794 2588 1216 
z
" transform="scale(0.015625)"/>
     </defs>
     <use xlink:href="#ArialMT-52"/>
     <use xlink:href="#ArialMT-65" x="72.216797"/>
     <use xlink:href="#ArialMT-6c" x="127.832031"/>
     <use xlink:href="#ArialMT-61" x="150.048828"/>
     <use xlink:href="#ArialMT-74" x="205.664062"/>
     <use xlink:href="#ArialMT-69" x="233.447266"/>
     <use xlink:href="#ArialMT-6f" x="255.664062"/>
     <use xlink:href="#ArialMT-6e" x="311.279297"/>
     <use xlink:href="#ArialMT-20" x="366.894531"/>
     <use xlink:href="#ArialMT-62" x="394.677734"/>
     <use xlink:href="#ArialMT-65" x="450.292969"/>
     <use xlink:href="#ArialMT-74" x="505.908203"/>
     <use xlink:href="#ArialMT-77" x="533.691406"/>
     <use xlink:href="#ArialMT-65" x="605.908203"/>
     <use xlink:href="#ArialMT-65" x="661.523438"/>
     <use xlink:href="#ArialMT-6e" x="717.138672"/>
     <use xlink:href="#ArialMT-20" x="772.753906"/>
     <use xlink:href="#ArialMT-65" x="800.537109"/>
     <use xlink:href="#ArialMT-72" x="856.152344"/>
     <use xlink:href="#ArialMT-72" x="889.453125"/>
     <use xlink:href="#ArialMT-6f" x="922.753906"/>
     <use xlink:href="#ArialMT-72" x="978.369141"/>
     <use xlink:href="#ArialMT-20" x="1011.669922"/>
     <use xlink:href="#ArialMT-61" x="1039.453125"/>
     <use xlink:href="#ArialMT-6e" x="1095.068359"/>
     <use xlink:href="#ArialMT-67" x="1150.683594"/>
     <use xlink:href="#ArialMT-65" x="1206.298828"/>
     <use xlink:href="#ArialMT-6c" x="1261.914062"/>
     <use xlink:href="#ArialMT-73" x="1284.130859"/>
     <use xlink:href="#ArialMT-20" x="1334.130859"/>
     <use xlink:href="#ArialMT-2f" x="1361.914062"/>
     <use xlink:href="#ArialMT-20" x="1389.697266"/>
     <use xlink:href="#ArialMT-4d" x="1417.480469"/>
     <use xlink:href="#ArialMT-56" x="1500.78125"/>
     <use xlink:href="#ArialMT-20" x="1567.480469"/>
     <use xlink:href="#ArialMT-69" x="1595.263672"/>
     <use xlink:href="#ArialMT-6e" x="1617.480469"/>
     <use xlink:href="#ArialMT-20" x="1673.095703"/>
     <use xlink:href="#ArialMT-74" x="1700.878906"/>
     <use xlink:href="#ArialMT-68" x="1728.662109"/>
     <use xlink:href="#ArialMT-65" x="1784.277344"/>
     <use xlink:href="#ArialMT-20" x="1839.892578"/>
     <use xlink:href="#ArialMT-41" x="1862.175781"/>
     <use xlink:href="#ArialMT-66" x="1928.875"/>
     <use xlink:href="#ArialMT-74" x="1956.658203"/>
     <use xlink:href="#ArialMT-65" x="1984.441406"/>
     <use xlink:href="#ArialMT-72" x="2040.056641"/>
     <use xlink:href="#ArialMT-65" x="2073.357422"/>
     <use xlink:href="#ArialMT-66" x="2128.972656"/>
     <use xlink:href="#ArialMT-66" x="2155.005859"/>
     <use xlink:href="#ArialMT-65" x="2182.789062"/>
     <use xlink:href="#ArialMT-63" x="2238.404297"/>
     <use xlink:href="#ArialMT-74" x="2288.404297"/>
     <use xlink:href="#ArialMT-20" x="2316.1875"/>
     <use xlink:href="#ArialMT-74" x="2343.970703"/>
     <use xlink:href="#ArialMT-72" x="2371.753906"/>
     <use xlink:href="#ArialMT-69" x="2405.054688"/>
     <use xlink:href="#ArialMT-61" x="2427.271484"/>
     <use xlink:href="#ArialMT-6c" x="2482.886719"/>
     <use xlink:href="#ArialMT-73" x="2505.103516"/>
    </g>
   </g>
   <g id="legend_1">
    <g id="patch_7">
     <path d="M 1042.803281 140.159375 
L 1093.9 140.159375 
Q 1096.1 140.159375 1096.1 137.959375 
L 1096.1 76.82 
Q 1096.1 74.62 1093.9 74.62 
L 1042.803281 74.62 
Q 1040.603281 74.62 1040.603281 76.82 
L 1040.603281 137.959375 
Q 1040.603281 140.159375 1042.803281 140.159375 
z
" style="fill: #eaeaf2; opacity: 0.8; stroke: #cccccc; stroke-linejoin: miter"/>
    </g>
    <g id="PathCollection_6">
     <defs>
      <path id="m8168bec137" d="M 0 3 
C 0.795609 3 1.55874 2.683901 2.12132 2.12132 
C 2.683901 1.55874 3 0.795609 3 0 
C 3 -0.795609 2.683901 -1.55874 2.12132 -2.12132 
C 1.55874 -2.683901 0.795609 -3 0 -3 
C -0.795609 -3 -1.55874 -2.683901 -2.12132 -2.12132 
C -2.683901 -1.55874 -3 -0.795609 -3 0 
C -3 0.795609 -2.683901 1.55874 -2.12132 2.12132 
C -1.55874 2.683901 -0.795609 3 0 3 
z
" style="stroke: #66c2a5"/>
     </defs>
     <g>
      <use xlink:href="#m8168bec137" x="1056.003281" y="84.006094" style="fill: #66c2a5; stroke: #66c2a5"/>
     </g>
    </g>
    <g id="text_18">
     <!-- -30 -->
     <g style="fill: #262626" transform="translate(1075.803281 86.893594)scale(0.11 -0.11)">
      <defs>
       <path id="ArialMT-2d" d="M 203 1375 
L 203 1941 
L 1931 1941 
L 1931 1375 
L 203 1375 
z
" transform="scale(0.015625)"/>
      </defs>
      <use xlink:href="#ArialMT-2d"/>
      <use xlink:href="#ArialMT-33" x="33.300781"/>
      <use xlink:href="#ArialMT-30" x="88.916016"/>
     </g>
    </g>
    <g id="PathCollection_7">
     <defs>
      <path id="m7922957144" d="M 0 3 
C 0.795609 3 1.55874 2.683901 2.12132 2.12132 
C 2.683901 1.55874 3 0.795609 3 0 
C 3 -0.795609 2.683901 -1.55874 2.12132 -2.12132 
C 1.55874 -2.683901 0.795609 -3 0 -3 
C -0.795609 -3 -1.55874 -2.683901 -2.12132 -2.12132 
C -2.683901 -1.55874 -3 -0.795609 -3 0 
C -3 0.795609 -2.683901 1.55874 -2.12132 2.12132 
C -1.55874 2.683901 -0.795609 3 0 3 
z
" style="stroke: #fc8d62"/>
     </defs>
     <g>
      <use xlink:href="#m7922957144" x="1056.003281" y="99.565938" style="fill: #fc8d62; stroke: #fc8d62"/>
     </g>
    </g>
    <g id="text_19">
     <!-- -20 -->
     <g style="fill: #262626" transform="translate(1075.803281 102.453438)scale(0.11 -0.11)">
      <use xlink:href="#ArialMT-2d"/>
      <use xlink:href="#ArialMT-32" x="33.300781"/>
      <use xlink:href="#ArialMT-30" x="88.916016"/>
     </g>
    </g>
    <g id="PathCollection_8">
     <defs>
      <path id="m164863bff2" d="M 0 3 
C 0.795609 3 1.55874 2.683901 2.12132 2.12132 
C 2.683901 1.55874 3 0.795609 3 0 
C 3 -0.795609 2.683901 -1.55874 2.12132 -2.12132 
C 1.55874 -2.683901 0.795609 -3 0 -3 
C -0.795609 -3 -1.55874 -2.683901 -2.12132 -2.12132 
C -2.683901 -1.55874 -3 -0.795609 -3 0 
C -3 0.795609 -2.683901 1.55874 -2.12132 2.12132 
C -1.55874 2.683901 -0.795609 3 0 3 
z
" style="stroke: #8da0cb"/>
     </defs>
     <g>
      <use xlink:href="#m164863bff2" x="1056.003281" y="115.125781" style="fill: #8da0cb; stroke: #8da0cb"/>
     </g>
    </g>
    <g id="text_20">
     <!-- 40 -->
     <g style="fill: #262626" transform="translate(1075.803281 118.013281)scale(0.11 -0.11)">
      <use xlink:href="#ArialMT-34"/>
      <use xlink:href="#ArialMT-30" x="55.615234"/>
     </g>
    </g>
    <g id="PathCollection_9">
     <defs>
      <path id="m878462c8e9" d="M 0 3 
C 0.795609 3 1.55874 2.683901 2.12132 2.12132 
C 2.683901 1.55874 3 0.795609 3 0 
C 3 -0.795609 2.683901 -1.55874 2.12132 -2.12132 
C 1.55874 -2.683901 0.795609 -3 0 -3 
C -0.795609 -3 -1.55874 -2.683901 -2.12132 -2.12132 
C -2.683901 -1.55874 -3 -0.795609 -3 0 
C -3 0.795609 -2.683901 1.55874 -2.12132 2.12132 
C -1.55874 2.683901 -0.795609 3 0 3 
z
" style="stroke: #e78ac3"/>
     </defs>
     <g>
      <use xlink:href="#m878462c8e9" x="1056.003281" y="130.685625" style="fill: #e78ac3; stroke: #e78ac3"/>
     </g>
    </g>
    <g id="text_21">
     <!-- 70 -->
     <g style="fill: #262626" transform="translate(1075.803281 133.573125)scale(0.11 -0.11)">
      <defs>
       <path id="ArialMT-37" d="M 303 3981 
L 303 4522 
L 3269 4522 
L 3269 4084 
Q 2831 3619 2401 2847 
Q 1972 2075 1738 1259 
Q 1569 684 1522 0 
L 944 0 
Q 953 541 1156 1306 
Q 1359 2072 1739 2783 
Q 2119 3494 2547 3981 
L 303 3981 
z
" transform="scale(0.015625)"/>
      </defs>
      <use xlink:href="#ArialMT-37"/>
      <use xlink:href="#ArialMT-30" x="55.615234"/>
     </g>
    </g>
   </g>
  </g>
 </g>
 <defs>
  <clipPath id="pacdbf28251">
   <rect x="153" y="69.12" width="948.6" height="434.88"/>
  </clipPath>
 </defs>
</svg>
